G04*
G04 #@! TF.GenerationSoftware,Altium Limited,Altium Designer,25.3.3 (18)*
G04*
G04 Layer_Physical_Order=2*
G04 Layer_Color=16711680*
%FSLAX44Y44*%
%MOMM*%
G71*
G04*
G04 #@! TF.SameCoordinates,9AC58102-6E01-47F4-9C41-847502B80828*
G04*
G04*
G04 #@! TF.FilePolarity,Positive*
G04*
G01*
G75*
%ADD42C,1.1176*%
%ADD43R,1.2446X1.2446*%
%ADD44C,1.2446*%
%ADD45C,1.4986*%
%ADD46R,1.1500X1.1500*%
%ADD47C,1.1500*%
%ADD48R,1.2954X1.2954*%
%ADD49C,1.2954*%
%ADD50R,1.1500X1.1500*%
%ADD51C,1.3970*%
%ADD52R,1.3970X1.3970*%
%ADD53R,1.2192X1.2192*%
%ADD54C,1.2192*%
%ADD56C,1.5240*%
%ADD57R,1.5240X1.5240*%
%ADD58C,0.6096*%
G36*
X1281430Y379730D02*
X1283958Y1803D01*
X1282167Y2D01*
X0Y1270D01*
Y379203D01*
X1797Y380998D01*
X1281430Y379730D01*
D02*
G37*
%LPC*%
G36*
X1132840Y343342D02*
Y339090D01*
X1137092D01*
X1136307Y340985D01*
X1134735Y342557D01*
X1132840Y343342D01*
D02*
G37*
G36*
X1130300D02*
X1128405Y342557D01*
X1126833Y340985D01*
X1126048Y339090D01*
X1130300D01*
Y343342D01*
D02*
G37*
G36*
X522640Y354780D02*
X506060D01*
Y338200D01*
X522640D01*
Y354780D01*
D02*
G37*
G36*
X1207770Y338262D02*
Y334010D01*
X1212022D01*
X1211237Y335905D01*
X1209665Y337477D01*
X1207770Y338262D01*
D02*
G37*
G36*
X1205230D02*
X1203335Y337477D01*
X1201763Y335905D01*
X1200978Y334010D01*
X1205230D01*
Y338262D01*
D02*
G37*
G36*
X311150Y336992D02*
Y332740D01*
X315402D01*
X314617Y334635D01*
X313045Y336207D01*
X311150Y336992D01*
D02*
G37*
G36*
X308610D02*
X306715Y336207D01*
X305143Y334635D01*
X304358Y332740D01*
X308610D01*
Y336992D01*
D02*
G37*
G36*
X1137092Y336550D02*
X1132840D01*
Y332298D01*
X1134735Y333083D01*
X1136307Y334655D01*
X1137092Y336550D01*
D02*
G37*
G36*
X1130300D02*
X1126048D01*
X1126833Y334655D01*
X1128405Y333083D01*
X1130300Y332298D01*
Y336550D01*
D02*
G37*
G36*
X1258621Y340233D02*
X1258570D01*
Y331470D01*
X1267333D01*
Y331521D01*
X1266649Y334073D01*
X1265328Y336360D01*
X1263460Y338228D01*
X1261173Y339549D01*
X1258621Y340233D01*
D02*
G37*
G36*
X26721D02*
X26670D01*
Y331470D01*
X35433D01*
Y331521D01*
X34749Y334073D01*
X33428Y336360D01*
X31560Y338228D01*
X29273Y339549D01*
X26721Y340233D01*
D02*
G37*
G36*
X1234440Y335722D02*
Y331470D01*
X1238692D01*
X1237907Y333365D01*
X1236335Y334937D01*
X1234440Y335722D01*
D02*
G37*
G36*
X1231900D02*
X1230005Y334937D01*
X1228433Y333365D01*
X1227648Y331470D01*
X1231900D01*
Y335722D01*
D02*
G37*
G36*
X24130Y340233D02*
X24079D01*
X21527Y339549D01*
X19240Y338228D01*
X17372Y336360D01*
X16051Y334073D01*
X15367Y331521D01*
Y331470D01*
X24130D01*
Y340233D01*
D02*
G37*
G36*
X1256030D02*
X1255979D01*
X1253427Y339549D01*
X1251140Y338228D01*
X1249272Y336360D01*
X1247951Y334073D01*
X1247267Y331521D01*
Y331470D01*
X1256030D01*
Y340233D01*
D02*
G37*
G36*
X191746Y333182D02*
Y328930D01*
X195998D01*
X195213Y330825D01*
X193641Y332397D01*
X191746Y333182D01*
D02*
G37*
G36*
X189206D02*
X187310Y332397D01*
X185738Y330825D01*
X184953Y328930D01*
X189206D01*
Y333182D01*
D02*
G37*
G36*
X1212022Y331470D02*
X1207770D01*
Y327218D01*
X1209665Y328003D01*
X1211237Y329575D01*
X1212022Y331470D01*
D02*
G37*
G36*
X1205230D02*
X1200978D01*
X1201763Y329575D01*
X1203335Y328003D01*
X1205230Y327218D01*
Y331470D01*
D02*
G37*
G36*
X695140Y343570D02*
X678560D01*
Y326990D01*
X695140D01*
Y343570D01*
D02*
G37*
G36*
X622341D02*
X620159D01*
X618050Y343005D01*
X616160Y341914D01*
X614616Y340370D01*
X613525Y338480D01*
X612960Y336371D01*
Y334189D01*
X613525Y332080D01*
X614616Y330190D01*
X616160Y328646D01*
X618050Y327555D01*
X620159Y326990D01*
X622341D01*
X624450Y327555D01*
X626340Y328646D01*
X627884Y330190D01*
X628975Y332080D01*
X629540Y334189D01*
Y336371D01*
X628975Y338480D01*
X627884Y340370D01*
X626340Y341914D01*
X624450Y343005D01*
X622341Y343570D01*
D02*
G37*
G36*
X315402Y330200D02*
X311150D01*
Y325948D01*
X313045Y326733D01*
X314617Y328305D01*
X315402Y330200D01*
D02*
G37*
G36*
X308610D02*
X304358D01*
X305143Y328305D01*
X306715Y326733D01*
X308610Y325948D01*
Y330200D01*
D02*
G37*
G36*
X1238692Y328930D02*
X1234440D01*
Y324678D01*
X1236335Y325463D01*
X1237907Y327035D01*
X1238692Y328930D01*
D02*
G37*
G36*
X1231900D02*
X1227648D01*
X1228433Y327035D01*
X1230005Y325463D01*
X1231900Y324678D01*
Y328930D01*
D02*
G37*
G36*
X195998Y326390D02*
X191746D01*
Y322138D01*
X193641Y322923D01*
X195213Y324495D01*
X195998Y326390D01*
D02*
G37*
G36*
X189206D02*
X184953D01*
X185738Y324495D01*
X187310Y322923D01*
X189206Y322138D01*
Y326390D01*
D02*
G37*
G36*
X482600Y325562D02*
Y321310D01*
X486852D01*
X486067Y323205D01*
X484495Y324777D01*
X482600Y325562D01*
D02*
G37*
G36*
X480060D02*
X478165Y324777D01*
X476593Y323205D01*
X475808Y321310D01*
X480060D01*
Y325562D01*
D02*
G37*
G36*
X463550Y328062D02*
Y321090D01*
X470522D01*
X470005Y323020D01*
X468914Y324910D01*
X467370Y326454D01*
X465480Y327545D01*
X463550Y328062D01*
D02*
G37*
G36*
X461010D02*
X459080Y327545D01*
X457190Y326454D01*
X455646Y324910D01*
X454555Y323020D01*
X454038Y321090D01*
X461010D01*
Y328062D01*
D02*
G37*
G36*
X1267333Y328930D02*
X1258570D01*
Y320167D01*
X1258621D01*
X1261173Y320851D01*
X1263460Y322172D01*
X1265328Y324040D01*
X1266649Y326327D01*
X1267333Y328879D01*
Y328930D01*
D02*
G37*
G36*
X1256030D02*
X1247267D01*
Y328879D01*
X1247951Y326327D01*
X1249272Y324040D01*
X1251140Y322172D01*
X1253427Y320851D01*
X1255979Y320167D01*
X1256030D01*
Y328930D01*
D02*
G37*
G36*
X35433D02*
X26670D01*
Y320167D01*
X26721D01*
X29273Y320851D01*
X31560Y322172D01*
X33428Y324040D01*
X34749Y326327D01*
X35433Y328879D01*
Y328930D01*
D02*
G37*
G36*
X24130D02*
X15367D01*
Y328879D01*
X16051Y326327D01*
X17372Y324040D01*
X19240Y322172D01*
X21527Y320851D01*
X24079Y320167D01*
X24130D01*
Y328930D01*
D02*
G37*
G36*
X1132400Y323202D02*
Y316230D01*
X1139372D01*
X1138855Y318160D01*
X1137764Y320050D01*
X1136220Y321594D01*
X1134330Y322685D01*
X1132400Y323202D01*
D02*
G37*
G36*
X1129860D02*
X1127930Y322685D01*
X1126040Y321594D01*
X1124496Y320050D01*
X1123405Y318160D01*
X1122888Y316230D01*
X1129860D01*
Y323202D01*
D02*
G37*
G36*
X486852Y318770D02*
X482600D01*
Y314518D01*
X484495Y315303D01*
X486067Y316875D01*
X486852Y318770D01*
D02*
G37*
G36*
X480060D02*
X475808D01*
X476593Y316875D01*
X478165Y315303D01*
X480060Y314518D01*
Y318770D01*
D02*
G37*
G36*
X806577Y330327D02*
X788543D01*
Y312293D01*
X806577D01*
Y330327D01*
D02*
G37*
G36*
X720007D02*
X717633D01*
X715340Y329712D01*
X713283Y328525D01*
X711605Y326847D01*
X710417Y324790D01*
X709803Y322497D01*
Y320123D01*
X710417Y317830D01*
X711605Y315773D01*
X713283Y314095D01*
X715340Y312908D01*
X717633Y312293D01*
X720007D01*
X722300Y312908D01*
X724357Y314095D01*
X726035Y315773D01*
X727223Y317830D01*
X727837Y320123D01*
Y322497D01*
X727223Y324790D01*
X726035Y326847D01*
X724357Y328525D01*
X722300Y329712D01*
X720007Y330327D01*
D02*
G37*
G36*
X470522Y318550D02*
X463550D01*
Y311578D01*
X465480Y312095D01*
X467370Y313186D01*
X468914Y314730D01*
X470005Y316620D01*
X470522Y318550D01*
D02*
G37*
G36*
X461010D02*
X454038D01*
X454555Y316620D01*
X455646Y314730D01*
X457190Y313186D01*
X459080Y312095D01*
X461010Y311578D01*
Y318550D01*
D02*
G37*
G36*
X436701Y328110D02*
X434519D01*
X432410Y327545D01*
X430520Y326454D01*
X428976Y324910D01*
X427885Y323020D01*
X427320Y320911D01*
Y318729D01*
X427885Y316620D01*
X428976Y314730D01*
X430520Y313186D01*
X432410Y312095D01*
X434519Y311530D01*
X436701D01*
X438810Y312095D01*
X440700Y313186D01*
X442244Y314730D01*
X443335Y316620D01*
X443900Y318729D01*
Y320911D01*
X443335Y323020D01*
X442244Y324910D01*
X440700Y326454D01*
X438810Y327545D01*
X436701Y328110D01*
D02*
G37*
G36*
X911987Y329057D02*
X893953D01*
Y311023D01*
X911987D01*
Y329057D01*
D02*
G37*
G36*
X825417D02*
X823043D01*
X820750Y328442D01*
X818693Y327255D01*
X817015Y325577D01*
X815827Y323520D01*
X815213Y321227D01*
Y318853D01*
X815827Y316560D01*
X817015Y314503D01*
X818693Y312825D01*
X820750Y311637D01*
X823043Y311023D01*
X825417D01*
X827710Y311637D01*
X829767Y312825D01*
X831445Y314503D01*
X832633Y316560D01*
X833247Y318853D01*
Y321227D01*
X832633Y323520D01*
X831445Y325577D01*
X829767Y327255D01*
X827710Y328442D01*
X825417Y329057D01*
D02*
G37*
G36*
X1139372Y313690D02*
X1132400D01*
Y306718D01*
X1134330Y307235D01*
X1136220Y308326D01*
X1137764Y309870D01*
X1138855Y311760D01*
X1139372Y313690D01*
D02*
G37*
G36*
X1129860D02*
X1122888D01*
X1123405Y311760D01*
X1124496Y309870D01*
X1126040Y308326D01*
X1127930Y307235D01*
X1129860Y306718D01*
Y313690D01*
D02*
G37*
G36*
X1073820Y323250D02*
X1057240D01*
Y306670D01*
X1073820D01*
Y323250D01*
D02*
G37*
G36*
X1052010D02*
X1035430D01*
Y306670D01*
X1052010D01*
Y323250D01*
D02*
G37*
G36*
X979211D02*
X977029D01*
X974920Y322685D01*
X973030Y321594D01*
X971486Y320050D01*
X970395Y318160D01*
X969830Y316051D01*
Y313869D01*
X970395Y311760D01*
X971486Y309870D01*
X973030Y308326D01*
X974920Y307235D01*
X977029Y306670D01*
X979211D01*
X981320Y307235D01*
X983210Y308326D01*
X984754Y309870D01*
X985845Y311760D01*
X986410Y313869D01*
Y316051D01*
X985845Y318160D01*
X984754Y320050D01*
X983210Y321594D01*
X981320Y322685D01*
X979211Y323250D01*
D02*
G37*
G36*
X26721Y314833D02*
X26670D01*
Y306070D01*
X35433D01*
Y306121D01*
X34749Y308673D01*
X33428Y310960D01*
X31560Y312828D01*
X29273Y314149D01*
X26721Y314833D01*
D02*
G37*
G36*
X52070Y310322D02*
Y306070D01*
X56322D01*
X55537Y307965D01*
X53965Y309537D01*
X52070Y310322D01*
D02*
G37*
G36*
X49530D02*
X47635Y309537D01*
X46063Y307965D01*
X45278Y306070D01*
X49530D01*
Y310322D01*
D02*
G37*
G36*
X24130Y314833D02*
X24079D01*
X21527Y314149D01*
X19240Y312828D01*
X17372Y310960D01*
X16051Y308673D01*
X15367Y306121D01*
Y306070D01*
X24130D01*
Y314833D01*
D02*
G37*
G36*
X56322Y303530D02*
X52070D01*
Y299278D01*
X53965Y300063D01*
X55537Y301635D01*
X56322Y303530D01*
D02*
G37*
G36*
X49530D02*
X45278D01*
X46063Y301635D01*
X47635Y300063D01*
X49530Y299278D01*
Y303530D01*
D02*
G37*
G36*
X365744Y315595D02*
X363236D01*
X360813Y314946D01*
X358642Y313692D01*
X356868Y311919D01*
X355614Y309746D01*
X354965Y307324D01*
Y304816D01*
X355614Y302393D01*
X356868Y300222D01*
X358642Y298448D01*
X360813Y297194D01*
X363236Y296545D01*
X365744D01*
X368167Y297194D01*
X370339Y298448D01*
X372112Y300222D01*
X373366Y302393D01*
X374015Y304816D01*
Y307324D01*
X373366Y309746D01*
X372112Y311919D01*
X370339Y313692D01*
X368167Y314946D01*
X365744Y315595D01*
D02*
G37*
G36*
X1258621Y314833D02*
X1255979D01*
X1253427Y314149D01*
X1251140Y312828D01*
X1249272Y310960D01*
X1247951Y308673D01*
X1247267Y306121D01*
Y303479D01*
X1247951Y300927D01*
X1249272Y298640D01*
X1251140Y296772D01*
X1253427Y295451D01*
X1255979Y294767D01*
X1258621D01*
X1261173Y295451D01*
X1263460Y296772D01*
X1265328Y298640D01*
X1266649Y300927D01*
X1267333Y303479D01*
Y306121D01*
X1266649Y308673D01*
X1265328Y310960D01*
X1263460Y312828D01*
X1261173Y314149D01*
X1258621Y314833D01*
D02*
G37*
G36*
X35433Y303530D02*
X26670D01*
Y294767D01*
X26721D01*
X29273Y295451D01*
X31560Y296772D01*
X33428Y298640D01*
X34749Y300927D01*
X35433Y303479D01*
Y303530D01*
D02*
G37*
G36*
X24130D02*
X15367D01*
Y303479D01*
X16051Y300927D01*
X17372Y298640D01*
X19240Y296772D01*
X21527Y295451D01*
X24079Y294767D01*
X24130D01*
Y303530D01*
D02*
G37*
G36*
X1113790Y295082D02*
Y290830D01*
X1118042D01*
X1117257Y292725D01*
X1115685Y294297D01*
X1113790Y295082D01*
D02*
G37*
G36*
X1111250D02*
X1109355Y294297D01*
X1107783Y292725D01*
X1106998Y290830D01*
X1111250D01*
Y295082D01*
D02*
G37*
G36*
X1118042Y288290D02*
X1113790D01*
Y284038D01*
X1115685Y284823D01*
X1117257Y286395D01*
X1118042Y288290D01*
D02*
G37*
G36*
X1111250D02*
X1106998D01*
X1107783Y286395D01*
X1109355Y284823D01*
X1111250Y284038D01*
Y288290D01*
D02*
G37*
G36*
X891286Y298196D02*
X874014D01*
Y280924D01*
X891286D01*
Y298196D01*
D02*
G37*
G36*
X799967D02*
X797693D01*
X795497Y297607D01*
X793527Y296471D01*
X791919Y294863D01*
X790782Y292893D01*
X790194Y290697D01*
Y288423D01*
X790782Y286227D01*
X791919Y284257D01*
X793527Y282649D01*
X795497Y281513D01*
X797693Y280924D01*
X799967D01*
X802163Y281513D01*
X804133Y282649D01*
X805741Y284257D01*
X806878Y286227D01*
X807466Y288423D01*
Y290697D01*
X806878Y292893D01*
X805741Y294863D01*
X804133Y296471D01*
X802163Y297607D01*
X799967Y298196D01*
D02*
G37*
G36*
X1202690Y283652D02*
Y279400D01*
X1206942D01*
X1206157Y281295D01*
X1204585Y282867D01*
X1202690Y283652D01*
D02*
G37*
G36*
X1200150D02*
X1198255Y282867D01*
X1196683Y281295D01*
X1195898Y279400D01*
X1200150D01*
Y283652D01*
D02*
G37*
G36*
X694090Y293820D02*
X677510D01*
Y277240D01*
X694090D01*
Y293820D01*
D02*
G37*
G36*
X396061D02*
X393879D01*
X391770Y293255D01*
X389880Y292164D01*
X388336Y290620D01*
X387245Y288730D01*
X386680Y286621D01*
Y284439D01*
X387245Y282330D01*
X388336Y280440D01*
X389880Y278896D01*
X391770Y277805D01*
X393879Y277240D01*
X396061D01*
X398170Y277805D01*
X400060Y278896D01*
X401604Y280440D01*
X402695Y282330D01*
X403260Y284439D01*
Y286621D01*
X402695Y288730D01*
X401604Y290620D01*
X400060Y292164D01*
X398170Y293255D01*
X396061Y293820D01*
D02*
G37*
G36*
X311646Y278572D02*
Y274320D01*
X315898D01*
X315113Y276215D01*
X313541Y277787D01*
X311646Y278572D01*
D02*
G37*
G36*
X309106D02*
X307211Y277787D01*
X305639Y276215D01*
X304853Y274320D01*
X309106D01*
Y278572D01*
D02*
G37*
G36*
X1206942Y276860D02*
X1202690D01*
Y272608D01*
X1204585Y273393D01*
X1206157Y274965D01*
X1206942Y276860D01*
D02*
G37*
G36*
X1200150D02*
X1195898D01*
X1196683Y274965D01*
X1198255Y273393D01*
X1200150Y272608D01*
Y276860D01*
D02*
G37*
G36*
X515441Y289180D02*
X513259D01*
X511150Y288615D01*
X509260Y287524D01*
X507716Y285980D01*
X506625Y284090D01*
X506060Y281981D01*
Y279799D01*
X506625Y277690D01*
X507716Y275800D01*
X509260Y274256D01*
X511150Y273165D01*
X513259Y272600D01*
X515441D01*
X517550Y273165D01*
X519440Y274256D01*
X520984Y275800D01*
X522075Y277690D01*
X522640Y279799D01*
Y281981D01*
X522075Y284090D01*
X520984Y285980D01*
X519440Y287524D01*
X517550Y288615D01*
X515441Y289180D01*
D02*
G37*
G36*
X1258621Y289433D02*
X1255979D01*
X1253427Y288749D01*
X1251140Y287428D01*
X1249272Y285560D01*
X1247951Y283273D01*
X1247267Y280721D01*
Y278079D01*
X1247951Y275527D01*
X1249272Y273240D01*
X1251140Y271372D01*
X1253427Y270051D01*
X1255979Y269367D01*
X1258621D01*
X1261173Y270051D01*
X1263460Y271372D01*
X1265328Y273240D01*
X1266649Y275527D01*
X1267333Y278079D01*
Y280721D01*
X1266649Y283273D01*
X1265328Y285560D01*
X1263460Y287428D01*
X1261173Y288749D01*
X1258621Y289433D01*
D02*
G37*
G36*
X26721D02*
X24079D01*
X21527Y288749D01*
X19240Y287428D01*
X17372Y285560D01*
X16051Y283273D01*
X15367Y280721D01*
Y278079D01*
X16051Y275527D01*
X17372Y273240D01*
X19240Y271372D01*
X21527Y270051D01*
X24079Y269367D01*
X26721D01*
X29273Y270051D01*
X31560Y271372D01*
X33428Y273240D01*
X34749Y275527D01*
X35433Y278079D01*
Y280721D01*
X34749Y283273D01*
X33428Y285560D01*
X31560Y287428D01*
X29273Y288749D01*
X26721Y289433D01*
D02*
G37*
G36*
X315898Y271780D02*
X311646D01*
Y267528D01*
X313541Y268313D01*
X315113Y269885D01*
X315898Y271780D01*
D02*
G37*
G36*
X309106D02*
X304853D01*
X305639Y269885D01*
X307211Y268313D01*
X309106Y267528D01*
Y271780D01*
D02*
G37*
G36*
X935770Y267322D02*
Y260350D01*
X942742D01*
X942225Y262280D01*
X941134Y264170D01*
X939590Y265714D01*
X937700Y266805D01*
X935770Y267322D01*
D02*
G37*
G36*
X933230D02*
X931300Y266805D01*
X929410Y265714D01*
X927866Y264170D01*
X926775Y262280D01*
X926258Y260350D01*
X933230D01*
Y267322D01*
D02*
G37*
G36*
X942742Y257810D02*
X935770D01*
Y250838D01*
X937700Y251355D01*
X939590Y252446D01*
X941134Y253990D01*
X942225Y255880D01*
X942742Y257810D01*
D02*
G37*
G36*
X933230D02*
X926258D01*
X926775Y255880D01*
X927866Y253990D01*
X929410Y252446D01*
X931300Y251355D01*
X933230Y250838D01*
Y257810D01*
D02*
G37*
G36*
X877190Y267370D02*
X860610D01*
Y250790D01*
X877190D01*
Y267370D01*
D02*
G37*
G36*
X560941D02*
X558759D01*
X556650Y266805D01*
X554760Y265714D01*
X553216Y264170D01*
X552125Y262280D01*
X551560Y260171D01*
Y257989D01*
X552125Y255880D01*
X553216Y253990D01*
X554760Y252446D01*
X556650Y251355D01*
X558759Y250790D01*
X560941D01*
X563050Y251355D01*
X564940Y252446D01*
X566484Y253990D01*
X567575Y255880D01*
X568140Y257989D01*
Y260171D01*
X567575Y262280D01*
X566484Y264170D01*
X564940Y265714D01*
X563050Y266805D01*
X560941Y267370D01*
D02*
G37*
G36*
X502540D02*
X485960D01*
Y250790D01*
X502540D01*
Y267370D01*
D02*
G37*
G36*
X470570Y262510D02*
X453990D01*
Y245930D01*
X470570D01*
Y262510D01*
D02*
G37*
G36*
X443900D02*
X427320D01*
Y245930D01*
X443900D01*
Y262510D01*
D02*
G37*
G36*
X1258621Y264033D02*
X1255979D01*
X1253427Y263349D01*
X1251140Y262028D01*
X1249272Y260160D01*
X1247951Y257873D01*
X1247267Y255321D01*
Y252679D01*
X1247951Y250127D01*
X1249272Y247840D01*
X1251140Y245972D01*
X1253427Y244651D01*
X1255979Y243967D01*
X1258621D01*
X1261173Y244651D01*
X1263460Y245972D01*
X1265328Y247840D01*
X1266649Y250127D01*
X1267333Y252679D01*
Y255321D01*
X1266649Y257873D01*
X1265328Y260160D01*
X1263460Y262028D01*
X1261173Y263349D01*
X1258621Y264033D01*
D02*
G37*
G36*
X26721D02*
X24079D01*
X21527Y263349D01*
X19240Y262028D01*
X17372Y260160D01*
X16051Y257873D01*
X15367Y255321D01*
Y252679D01*
X16051Y250127D01*
X17372Y247840D01*
X19240Y245972D01*
X21527Y244651D01*
X24079Y243967D01*
X26721D01*
X29273Y244651D01*
X31560Y245972D01*
X33428Y247840D01*
X34749Y250127D01*
X35433Y252679D01*
Y255321D01*
X34749Y257873D01*
X33428Y260160D01*
X31560Y262028D01*
X29273Y263349D01*
X26721Y264033D01*
D02*
G37*
G36*
X828108Y264160D02*
X825432D01*
X822848Y263468D01*
X820532Y262130D01*
X818640Y260238D01*
X817302Y257922D01*
X816610Y255338D01*
Y252662D01*
X817302Y250078D01*
X818640Y247762D01*
X820532Y245870D01*
X822848Y244532D01*
X825432Y243840D01*
X828108D01*
X830692Y244532D01*
X833008Y245870D01*
X834900Y247762D01*
X836238Y250078D01*
X836930Y252662D01*
Y255338D01*
X836238Y257922D01*
X834900Y260238D01*
X833008Y262130D01*
X830692Y263468D01*
X828108Y264160D01*
D02*
G37*
G36*
X802708D02*
X800032D01*
X797448Y263468D01*
X795132Y262130D01*
X793240Y260238D01*
X791902Y257922D01*
X791210Y255338D01*
Y252662D01*
X791902Y250078D01*
X793240Y247762D01*
X795132Y245870D01*
X797448Y244532D01*
X800032Y243840D01*
X802708D01*
X805292Y244532D01*
X807608Y245870D01*
X809500Y247762D01*
X810838Y250078D01*
X811530Y252662D01*
Y255338D01*
X810838Y257922D01*
X809500Y260238D01*
X807608Y262130D01*
X805292Y263468D01*
X802708Y264160D01*
D02*
G37*
G36*
X777308D02*
X774632D01*
X772048Y263468D01*
X769732Y262130D01*
X767840Y260238D01*
X766502Y257922D01*
X765810Y255338D01*
Y252662D01*
X766502Y250078D01*
X767840Y247762D01*
X769732Y245870D01*
X772048Y244532D01*
X774632Y243840D01*
X777308D01*
X779892Y244532D01*
X782208Y245870D01*
X784100Y247762D01*
X785438Y250078D01*
X786130Y252662D01*
Y255338D01*
X785438Y257922D01*
X784100Y260238D01*
X782208Y262130D01*
X779892Y263468D01*
X777308Y264160D01*
D02*
G37*
G36*
X751908D02*
X749232D01*
X746648Y263468D01*
X744332Y262130D01*
X742440Y260238D01*
X741102Y257922D01*
X740410Y255338D01*
Y252662D01*
X741102Y250078D01*
X742440Y247762D01*
X744332Y245870D01*
X746648Y244532D01*
X749232Y243840D01*
X751908D01*
X754492Y244532D01*
X756808Y245870D01*
X758700Y247762D01*
X760038Y250078D01*
X760730Y252662D01*
Y255338D01*
X760038Y257922D01*
X758700Y260238D01*
X756808Y262130D01*
X754492Y263468D01*
X751908Y264160D01*
D02*
G37*
G36*
X1207897Y256667D02*
X1189863D01*
Y238633D01*
X1207897D01*
Y256667D01*
D02*
G37*
G36*
X1121327D02*
X1118953D01*
X1116660Y256052D01*
X1114603Y254865D01*
X1112925Y253187D01*
X1111738Y251130D01*
X1111123Y248837D01*
Y246463D01*
X1111738Y244170D01*
X1112925Y242113D01*
X1114603Y240435D01*
X1116660Y239247D01*
X1118953Y238633D01*
X1121327D01*
X1123620Y239247D01*
X1125677Y240435D01*
X1127355Y242113D01*
X1128542Y244170D01*
X1129157Y246463D01*
Y248837D01*
X1128542Y251130D01*
X1127355Y253187D01*
X1125677Y254865D01*
X1123620Y256052D01*
X1121327Y256667D01*
D02*
G37*
G36*
X416560Y241742D02*
Y237490D01*
X420812D01*
X420027Y239385D01*
X418455Y240957D01*
X416560Y241742D01*
D02*
G37*
G36*
X414020D02*
X412125Y240957D01*
X410553Y239385D01*
X409768Y237490D01*
X414020D01*
Y241742D01*
D02*
G37*
G36*
X1089728Y252730D02*
X1087052D01*
X1084468Y252038D01*
X1082152Y250700D01*
X1080260Y248808D01*
X1078922Y246492D01*
X1078230Y243908D01*
Y241232D01*
X1078922Y238648D01*
X1080260Y236332D01*
X1082152Y234440D01*
X1084468Y233102D01*
X1087052Y232410D01*
X1089728D01*
X1092312Y233102D01*
X1094628Y234440D01*
X1096520Y236332D01*
X1097858Y238648D01*
X1098550Y241232D01*
Y243908D01*
X1097858Y246492D01*
X1096520Y248808D01*
X1094628Y250700D01*
X1092312Y252038D01*
X1089728Y252730D01*
D02*
G37*
G36*
X1064328D02*
X1061652D01*
X1059068Y252038D01*
X1056752Y250700D01*
X1054860Y248808D01*
X1053522Y246492D01*
X1052830Y243908D01*
Y241232D01*
X1053522Y238648D01*
X1054860Y236332D01*
X1056752Y234440D01*
X1059068Y233102D01*
X1061652Y232410D01*
X1064328D01*
X1066912Y233102D01*
X1069228Y234440D01*
X1071120Y236332D01*
X1072458Y238648D01*
X1073150Y241232D01*
Y243908D01*
X1072458Y246492D01*
X1071120Y248808D01*
X1069228Y250700D01*
X1066912Y252038D01*
X1064328Y252730D01*
D02*
G37*
G36*
X1038928D02*
X1036252D01*
X1033668Y252038D01*
X1031352Y250700D01*
X1029460Y248808D01*
X1028122Y246492D01*
X1027430Y243908D01*
Y241232D01*
X1028122Y238648D01*
X1029460Y236332D01*
X1031352Y234440D01*
X1033668Y233102D01*
X1036252Y232410D01*
X1038928D01*
X1041512Y233102D01*
X1043828Y234440D01*
X1045720Y236332D01*
X1047058Y238648D01*
X1047750Y241232D01*
Y243908D01*
X1047058Y246492D01*
X1045720Y248808D01*
X1043828Y250700D01*
X1041512Y252038D01*
X1038928Y252730D01*
D02*
G37*
G36*
X1013528D02*
X1010852D01*
X1008268Y252038D01*
X1005952Y250700D01*
X1004060Y248808D01*
X1002722Y246492D01*
X1002030Y243908D01*
Y241232D01*
X1002722Y238648D01*
X1004060Y236332D01*
X1005952Y234440D01*
X1008268Y233102D01*
X1010852Y232410D01*
X1013528D01*
X1016112Y233102D01*
X1018428Y234440D01*
X1020320Y236332D01*
X1021658Y238648D01*
X1022350Y241232D01*
Y243908D01*
X1021658Y246492D01*
X1020320Y248808D01*
X1018428Y250700D01*
X1016112Y252038D01*
X1013528Y252730D01*
D02*
G37*
G36*
X438218Y240030D02*
X438150D01*
Y231140D01*
X447040D01*
Y231208D01*
X446348Y233792D01*
X445010Y236108D01*
X443118Y238000D01*
X440802Y239338D01*
X438218Y240030D01*
D02*
G37*
G36*
X435610D02*
X435542D01*
X432958Y239338D01*
X430642Y238000D01*
X428750Y236108D01*
X427412Y233792D01*
X426720Y231208D01*
Y231140D01*
X435610D01*
Y240030D01*
D02*
G37*
G36*
X420812Y234950D02*
X416560D01*
Y230698D01*
X418455Y231483D01*
X420027Y233055D01*
X420812Y234950D01*
D02*
G37*
G36*
X414020D02*
X409768D01*
X410553Y233055D01*
X412125Y231483D01*
X414020Y230698D01*
Y234950D01*
D02*
G37*
G36*
X687070Y228172D02*
Y221200D01*
X694042D01*
X693525Y223130D01*
X692434Y225020D01*
X690890Y226564D01*
X689000Y227655D01*
X687070Y228172D01*
D02*
G37*
G36*
X684530D02*
X682600Y227655D01*
X680710Y226564D01*
X679166Y225020D01*
X678075Y223130D01*
X677558Y221200D01*
X684530D01*
Y228172D01*
D02*
G37*
G36*
X523240Y240030D02*
X502920D01*
Y219710D01*
X523240D01*
Y240030D01*
D02*
G37*
G36*
X489018D02*
X486342D01*
X483758Y239338D01*
X481442Y238000D01*
X479550Y236108D01*
X478212Y233792D01*
X477520Y231208D01*
Y228532D01*
X478212Y225948D01*
X479550Y223632D01*
X481442Y221740D01*
X483758Y220402D01*
X486342Y219710D01*
X489018D01*
X491602Y220402D01*
X493918Y221740D01*
X495810Y223632D01*
X497148Y225948D01*
X497840Y228532D01*
Y231208D01*
X497148Y233792D01*
X495810Y236108D01*
X493918Y238000D01*
X491602Y239338D01*
X489018Y240030D01*
D02*
G37*
G36*
X463618D02*
X460942D01*
X458358Y239338D01*
X456042Y238000D01*
X454150Y236108D01*
X452812Y233792D01*
X452120Y231208D01*
Y228532D01*
X452812Y225948D01*
X454150Y223632D01*
X456042Y221740D01*
X458358Y220402D01*
X460942Y219710D01*
X463618D01*
X466202Y220402D01*
X468518Y221740D01*
X470410Y223632D01*
X471748Y225948D01*
X472440Y228532D01*
Y231208D01*
X471748Y233792D01*
X470410Y236108D01*
X468518Y238000D01*
X466202Y239338D01*
X463618Y240030D01*
D02*
G37*
G36*
X447040Y228600D02*
X438150D01*
Y219710D01*
X438218D01*
X440802Y220402D01*
X443118Y221740D01*
X445010Y223632D01*
X446348Y225948D01*
X447040Y228532D01*
Y228600D01*
D02*
G37*
G36*
X435610D02*
X426720D01*
Y228532D01*
X427412Y225948D01*
X428750Y223632D01*
X430642Y221740D01*
X432958Y220402D01*
X435542Y219710D01*
X435610D01*
Y228600D01*
D02*
G37*
G36*
X1215390Y222692D02*
Y218440D01*
X1219642D01*
X1218857Y220335D01*
X1217285Y221907D01*
X1215390Y222692D01*
D02*
G37*
G36*
X1197610Y226165D02*
X1195400Y225572D01*
X1193343Y224385D01*
X1191665Y222707D01*
X1190478Y220650D01*
X1189885Y218440D01*
X1197610D01*
Y226165D01*
D02*
G37*
G36*
X694042Y218660D02*
X687070D01*
Y211688D01*
X689000Y212205D01*
X690890Y213296D01*
X692434Y214840D01*
X693525Y216730D01*
X694042Y218660D01*
D02*
G37*
G36*
X684530D02*
X677558D01*
X678075Y216730D01*
X679166Y214840D01*
X680710Y213296D01*
X682600Y212205D01*
X684530Y211688D01*
Y218660D01*
D02*
G37*
G36*
X1219642Y215900D02*
X1215390D01*
Y211648D01*
X1217285Y212433D01*
X1218857Y214005D01*
X1219642Y215900D01*
D02*
G37*
G36*
X1200150Y226165D02*
Y217170D01*
Y208175D01*
X1202360Y208768D01*
X1204417Y209955D01*
X1206095Y211633D01*
X1206981Y213167D01*
X1207905Y213489D01*
X1208686Y213598D01*
X1209867Y213521D01*
X1210955Y212433D01*
X1212850Y211648D01*
Y217170D01*
Y222692D01*
X1210955Y221907D01*
X1209867Y220819D01*
X1208686Y220742D01*
X1207905Y220851D01*
X1206981Y221173D01*
X1206095Y222707D01*
X1204417Y224385D01*
X1202360Y225572D01*
X1200150Y226165D01*
D02*
G37*
G36*
X403260Y228220D02*
X386680D01*
Y211640D01*
X403260D01*
Y228220D01*
D02*
G37*
G36*
X226060Y213802D02*
Y209550D01*
X230312D01*
X229527Y211445D01*
X227955Y213017D01*
X226060Y213802D01*
D02*
G37*
G36*
X223520D02*
X221625Y213017D01*
X220053Y211445D01*
X219268Y209550D01*
X223520D01*
Y213802D01*
D02*
G37*
G36*
X285750Y212532D02*
Y208280D01*
X290002D01*
X289217Y210175D01*
X287645Y211747D01*
X285750Y212532D01*
D02*
G37*
G36*
X283210D02*
X281315Y211747D01*
X279743Y210175D01*
X278958Y208280D01*
X283210D01*
Y212532D01*
D02*
G37*
G36*
X1197610Y215900D02*
X1189885D01*
X1190478Y213690D01*
X1191665Y211633D01*
X1193343Y209955D01*
X1195400Y208768D01*
X1197610Y208175D01*
Y215900D01*
D02*
G37*
G36*
X1129157Y226187D02*
X1111123D01*
Y208153D01*
X1129157D01*
Y226187D01*
D02*
G37*
G36*
X125330Y213814D02*
Y207010D01*
X132134D01*
X131634Y208877D01*
X130564Y210731D01*
X129051Y212244D01*
X127197Y213314D01*
X125330Y213814D01*
D02*
G37*
G36*
X853440Y211262D02*
Y207010D01*
X857692D01*
X856907Y208905D01*
X855335Y210477D01*
X853440Y211262D01*
D02*
G37*
G36*
X850900D02*
X849005Y210477D01*
X847433Y208905D01*
X846648Y207010D01*
X850900D01*
Y211262D01*
D02*
G37*
G36*
X147320D02*
Y207010D01*
X151572D01*
X150787Y208905D01*
X149215Y210477D01*
X147320Y211262D01*
D02*
G37*
G36*
X144780D02*
X142885Y210477D01*
X141313Y208905D01*
X140528Y207010D01*
X144780D01*
Y211262D01*
D02*
G37*
G36*
X122790Y213814D02*
X120923Y213314D01*
X119069Y212244D01*
X117556Y210731D01*
X116486Y208877D01*
X115986Y207010D01*
X122790D01*
Y213814D01*
D02*
G37*
G36*
X230312Y207010D02*
X226060D01*
Y202758D01*
X227955Y203543D01*
X229527Y205115D01*
X230312Y207010D01*
D02*
G37*
G36*
X223520D02*
X219268D01*
X220053Y205115D01*
X221625Y203543D01*
X223520Y202758D01*
Y207010D01*
D02*
G37*
G36*
X290002Y205740D02*
X285750D01*
Y201488D01*
X287645Y202273D01*
X289217Y203845D01*
X290002Y205740D01*
D02*
G37*
G36*
X283210D02*
X278958D01*
X279743Y203845D01*
X281315Y202273D01*
X283210Y201488D01*
Y205740D01*
D02*
G37*
G36*
X857692Y204470D02*
X853440D01*
Y200218D01*
X855335Y201003D01*
X856907Y202575D01*
X857692Y204470D01*
D02*
G37*
G36*
X850900D02*
X846648D01*
X847433Y202575D01*
X849005Y201003D01*
X850900Y200218D01*
Y204470D01*
D02*
G37*
G36*
X151572D02*
X147320D01*
Y200218D01*
X149215Y201003D01*
X150787Y202575D01*
X151572Y204470D01*
D02*
G37*
G36*
X144780D02*
X140528D01*
X141313Y202575D01*
X142885Y201003D01*
X144780Y200218D01*
Y204470D01*
D02*
G37*
G36*
X132134D02*
X125330D01*
Y197666D01*
X127197Y198166D01*
X129051Y199236D01*
X130564Y200749D01*
X131634Y202603D01*
X132134Y204470D01*
D02*
G37*
G36*
X122790D02*
X115986D01*
X116486Y202603D01*
X117556Y200749D01*
X119069Y199236D01*
X120923Y198166D01*
X122790Y197666D01*
Y204470D01*
D02*
G37*
G36*
X75130Y213868D02*
X72990D01*
X70923Y213314D01*
X69069Y212244D01*
X67556Y210731D01*
X66486Y208877D01*
X65932Y206810D01*
Y204670D01*
X66486Y202603D01*
X67556Y200749D01*
X69069Y199236D01*
X70923Y198166D01*
X72990Y197612D01*
X75130D01*
X77197Y198166D01*
X79051Y199236D01*
X80564Y200749D01*
X81634Y202603D01*
X82188Y204670D01*
Y206810D01*
X81634Y208877D01*
X80564Y210731D01*
X79051Y212244D01*
X77197Y213314D01*
X75130Y213868D01*
D02*
G37*
G36*
X687070Y203602D02*
Y196630D01*
X694042D01*
X693525Y198560D01*
X692434Y200450D01*
X690890Y201994D01*
X689000Y203085D01*
X687070Y203602D01*
D02*
G37*
G36*
X684530D02*
X682600Y203085D01*
X680710Y201994D01*
X679166Y200450D01*
X678075Y198560D01*
X677558Y196630D01*
X684530D01*
Y203602D01*
D02*
G37*
G36*
X245110Y199832D02*
Y195580D01*
X249362D01*
X248577Y197475D01*
X247005Y199047D01*
X245110Y199832D01*
D02*
G37*
G36*
X242570D02*
X240675Y199047D01*
X239103Y197475D01*
X238318Y195580D01*
X242570D01*
Y199832D01*
D02*
G37*
G36*
X374015Y201295D02*
X365760D01*
Y193040D01*
X374015D01*
Y201295D01*
D02*
G37*
G36*
X391160Y197292D02*
Y193040D01*
X395412D01*
X394627Y194935D01*
X393055Y196507D01*
X391160Y197292D01*
D02*
G37*
G36*
X388620D02*
X386725Y196507D01*
X385153Y194935D01*
X384368Y193040D01*
X388620D01*
Y197292D01*
D02*
G37*
G36*
X363220Y201295D02*
X354965D01*
Y193040D01*
X363220D01*
Y201295D01*
D02*
G37*
G36*
X249362Y193040D02*
X245110D01*
Y188788D01*
X247005Y189573D01*
X248577Y191145D01*
X249362Y193040D01*
D02*
G37*
G36*
X242570D02*
X238318D01*
X239103Y191145D01*
X240675Y189573D01*
X242570Y188788D01*
Y193040D01*
D02*
G37*
G36*
X694042Y194090D02*
X687070D01*
Y187118D01*
X689000Y187635D01*
X690890Y188726D01*
X692434Y190270D01*
X693525Y192160D01*
X694042Y194090D01*
D02*
G37*
G36*
X684530D02*
X677558D01*
X678075Y192160D01*
X679166Y190270D01*
X680710Y188726D01*
X682600Y187635D01*
X684530Y187118D01*
Y194090D01*
D02*
G37*
G36*
X148590Y190942D02*
Y186690D01*
X152842D01*
X152057Y188585D01*
X150485Y190157D01*
X148590Y190942D01*
D02*
G37*
G36*
X146050D02*
X144155Y190157D01*
X142583Y188585D01*
X141798Y186690D01*
X146050D01*
Y190942D01*
D02*
G37*
G36*
X395412Y190500D02*
X391160D01*
Y186248D01*
X393055Y187033D01*
X394627Y188605D01*
X395412Y190500D01*
D02*
G37*
G36*
X388620D02*
X384368D01*
X385153Y188605D01*
X386725Y187033D01*
X388620Y186248D01*
Y190500D01*
D02*
G37*
G36*
X182880Y188402D02*
Y184150D01*
X187132D01*
X186347Y186045D01*
X184775Y187617D01*
X182880Y188402D01*
D02*
G37*
G36*
X180340D02*
X178445Y187617D01*
X176873Y186045D01*
X176088Y184150D01*
X180340D01*
Y188402D01*
D02*
G37*
G36*
X374015Y190500D02*
X365760D01*
Y182245D01*
X374015D01*
Y190500D01*
D02*
G37*
G36*
X363220D02*
X354965D01*
Y182245D01*
X363220D01*
Y190500D01*
D02*
G37*
G36*
X152842Y184150D02*
X148590D01*
Y179898D01*
X150485Y180683D01*
X152057Y182255D01*
X152842Y184150D01*
D02*
G37*
G36*
X146050D02*
X141798D01*
X142583Y182255D01*
X144155Y180683D01*
X146050Y179898D01*
Y184150D01*
D02*
G37*
G36*
X828108Y187960D02*
X828040D01*
Y179070D01*
X836930D01*
Y179138D01*
X836238Y181722D01*
X834900Y184038D01*
X833008Y185930D01*
X830692Y187268D01*
X828108Y187960D01*
D02*
G37*
G36*
X825500D02*
X825432D01*
X822848Y187268D01*
X820532Y185930D01*
X818640Y184038D01*
X817302Y181722D01*
X816610Y179138D01*
Y179070D01*
X825500D01*
Y187960D01*
D02*
G37*
G36*
X1207897Y195707D02*
X1189863D01*
Y177673D01*
X1207897D01*
Y195707D01*
D02*
G37*
G36*
X1121327D02*
X1118953D01*
X1116660Y195093D01*
X1114603Y193905D01*
X1112925Y192227D01*
X1111738Y190170D01*
X1111123Y187877D01*
Y185503D01*
X1111738Y183210D01*
X1112925Y181153D01*
X1114603Y179475D01*
X1116660Y178288D01*
X1118953Y177673D01*
X1121327D01*
X1123620Y178288D01*
X1125677Y179475D01*
X1127355Y181153D01*
X1128542Y183210D01*
X1129157Y185503D01*
Y187877D01*
X1128542Y190170D01*
X1127355Y192227D01*
X1125677Y193905D01*
X1123620Y195093D01*
X1121327Y195707D01*
D02*
G37*
G36*
X187132Y181610D02*
X182880D01*
Y177358D01*
X184775Y178143D01*
X186347Y179715D01*
X187132Y181610D01*
D02*
G37*
G36*
X180340D02*
X176088D01*
X176873Y179715D01*
X178445Y178143D01*
X180340Y177358D01*
Y181610D01*
D02*
G37*
G36*
X374015Y178435D02*
X365760D01*
Y170180D01*
X374015D01*
Y178435D01*
D02*
G37*
G36*
X363220D02*
X354965D01*
Y170180D01*
X363220D01*
Y178435D01*
D02*
G37*
G36*
X1089728Y176530D02*
X1089660D01*
Y167640D01*
X1098550D01*
Y167708D01*
X1097858Y170292D01*
X1096520Y172608D01*
X1094628Y174500D01*
X1092312Y175838D01*
X1089728Y176530D01*
D02*
G37*
G36*
X836930D02*
X828040D01*
Y167640D01*
X828108D01*
X830692Y168332D01*
X833008Y169670D01*
X834900Y171562D01*
X836238Y173878D01*
X836930Y176462D01*
Y176530D01*
D02*
G37*
G36*
X825500D02*
X816610D01*
Y176462D01*
X817302Y173878D01*
X818640Y171562D01*
X820532Y169670D01*
X822848Y168332D01*
X825432Y167640D01*
X825500D01*
Y176530D01*
D02*
G37*
G36*
X802708Y187960D02*
X800032D01*
X797448Y187268D01*
X795132Y185930D01*
X793240Y184038D01*
X791902Y181722D01*
X791210Y179138D01*
Y176462D01*
X791902Y173878D01*
X793240Y171562D01*
X795132Y169670D01*
X797448Y168332D01*
X800032Y167640D01*
X802708D01*
X805292Y168332D01*
X807608Y169670D01*
X809500Y171562D01*
X810838Y173878D01*
X811530Y176462D01*
Y179138D01*
X810838Y181722D01*
X809500Y184038D01*
X807608Y185930D01*
X805292Y187268D01*
X802708Y187960D01*
D02*
G37*
G36*
X777308D02*
X774632D01*
X772048Y187268D01*
X769732Y185930D01*
X767840Y184038D01*
X766502Y181722D01*
X765810Y179138D01*
Y176462D01*
X766502Y173878D01*
X767840Y171562D01*
X769732Y169670D01*
X772048Y168332D01*
X774632Y167640D01*
X777308D01*
X779892Y168332D01*
X782208Y169670D01*
X784100Y171562D01*
X785438Y173878D01*
X786130Y176462D01*
Y179138D01*
X785438Y181722D01*
X784100Y184038D01*
X782208Y185930D01*
X779892Y187268D01*
X777308Y187960D01*
D02*
G37*
G36*
X760730D02*
X740410D01*
Y167640D01*
X760730D01*
Y187960D01*
D02*
G37*
G36*
X391160Y171892D02*
Y167640D01*
X395412D01*
X394627Y169535D01*
X393055Y171107D01*
X391160Y171892D01*
D02*
G37*
G36*
X388620D02*
X386725Y171107D01*
X385153Y169535D01*
X384368Y167640D01*
X388620D01*
Y171892D01*
D02*
G37*
G36*
X1087120Y176530D02*
X1087052D01*
X1084468Y175838D01*
X1082152Y174500D01*
X1080260Y172608D01*
X1078922Y170292D01*
X1078230Y167708D01*
Y167640D01*
X1087120D01*
Y176530D01*
D02*
G37*
G36*
X395412Y165100D02*
X391160D01*
Y160848D01*
X393055Y161633D01*
X394627Y163205D01*
X395412Y165100D01*
D02*
G37*
G36*
X388620D02*
X384368D01*
X385153Y163205D01*
X386725Y161633D01*
X388620Y160848D01*
Y165100D01*
D02*
G37*
G36*
X374015Y167640D02*
X365760D01*
Y159385D01*
X374015D01*
Y167640D01*
D02*
G37*
G36*
X363220D02*
X354965D01*
Y159385D01*
X363220D01*
Y167640D01*
D02*
G37*
G36*
X922996Y165929D02*
Y158957D01*
X929968D01*
X929451Y160887D01*
X928360Y162777D01*
X926816Y164320D01*
X924926Y165412D01*
X922996Y165929D01*
D02*
G37*
G36*
X920456D02*
X918526Y165412D01*
X916636Y164320D01*
X915092Y162777D01*
X914001Y160887D01*
X913484Y158957D01*
X920456D01*
Y165929D01*
D02*
G37*
G36*
X941070Y163002D02*
Y158750D01*
X945322D01*
X944537Y160645D01*
X942965Y162217D01*
X941070Y163002D01*
D02*
G37*
G36*
X938530D02*
X936635Y162217D01*
X935063Y160645D01*
X934278Y158750D01*
X938530D01*
Y163002D01*
D02*
G37*
G36*
X1215390Y160462D02*
Y156210D01*
X1219642D01*
X1218857Y158105D01*
X1217285Y159677D01*
X1215390Y160462D01*
D02*
G37*
G36*
X1098550Y165100D02*
X1089660D01*
Y156210D01*
X1089728D01*
X1092312Y156902D01*
X1094628Y158240D01*
X1096520Y160132D01*
X1097858Y162448D01*
X1098550Y165032D01*
Y165100D01*
D02*
G37*
G36*
X1087120D02*
X1078230D01*
Y165032D01*
X1078922Y162448D01*
X1080260Y160132D01*
X1082152Y158240D01*
X1084468Y156902D01*
X1087052Y156210D01*
X1087120D01*
Y165100D01*
D02*
G37*
G36*
X1064328Y176530D02*
X1061652D01*
X1059068Y175838D01*
X1056752Y174500D01*
X1054860Y172608D01*
X1053522Y170292D01*
X1052830Y167708D01*
Y165032D01*
X1053522Y162448D01*
X1054860Y160132D01*
X1056752Y158240D01*
X1059068Y156902D01*
X1061652Y156210D01*
X1064328D01*
X1066912Y156902D01*
X1069228Y158240D01*
X1071120Y160132D01*
X1072458Y162448D01*
X1073150Y165032D01*
Y167708D01*
X1072458Y170292D01*
X1071120Y172608D01*
X1069228Y174500D01*
X1066912Y175838D01*
X1064328Y176530D01*
D02*
G37*
G36*
X1038928D02*
X1036252D01*
X1033668Y175838D01*
X1031352Y174500D01*
X1029460Y172608D01*
X1028122Y170292D01*
X1027430Y167708D01*
Y165032D01*
X1028122Y162448D01*
X1029460Y160132D01*
X1031352Y158240D01*
X1033668Y156902D01*
X1036252Y156210D01*
X1038928D01*
X1041512Y156902D01*
X1043828Y158240D01*
X1045720Y160132D01*
X1047058Y162448D01*
X1047750Y165032D01*
Y167708D01*
X1047058Y170292D01*
X1045720Y172608D01*
X1043828Y174500D01*
X1041512Y175838D01*
X1038928Y176530D01*
D02*
G37*
G36*
X1022350D02*
X1002030D01*
Y156210D01*
X1022350D01*
Y176530D01*
D02*
G37*
G36*
X1197610Y163935D02*
X1195400Y163342D01*
X1193343Y162155D01*
X1191665Y160477D01*
X1190478Y158420D01*
X1189885Y156210D01*
X1197610D01*
Y163935D01*
D02*
G37*
G36*
X945322Y156210D02*
X941070D01*
Y151958D01*
X942965Y152743D01*
X944537Y154315D01*
X945322Y156210D01*
D02*
G37*
G36*
X938530D02*
X934278D01*
X935063Y154315D01*
X936635Y152743D01*
X938530Y151958D01*
Y156210D01*
D02*
G37*
G36*
X1096010Y154112D02*
Y149860D01*
X1100262D01*
X1099477Y151755D01*
X1097905Y153327D01*
X1096010Y154112D01*
D02*
G37*
G36*
X1093470D02*
X1091575Y153327D01*
X1090003Y151755D01*
X1089218Y149860D01*
X1093470D01*
Y154112D01*
D02*
G37*
G36*
X109550D02*
Y149860D01*
X113803D01*
X113018Y151755D01*
X111446Y153327D01*
X109550Y154112D01*
D02*
G37*
G36*
X107010D02*
X105115Y153327D01*
X103543Y151755D01*
X102758Y149860D01*
X107010D01*
Y154112D01*
D02*
G37*
G36*
X929968Y156417D02*
X922996D01*
Y149445D01*
X924926Y149962D01*
X926816Y151053D01*
X928360Y152597D01*
X929451Y154487D01*
X929968Y156417D01*
D02*
G37*
G36*
X920456D02*
X913484D01*
X914001Y154487D01*
X915092Y152597D01*
X916636Y151053D01*
X918526Y149962D01*
X920456Y149445D01*
Y156417D01*
D02*
G37*
G36*
X1219642Y153670D02*
X1215390D01*
Y149418D01*
X1217285Y150203D01*
X1218857Y151775D01*
X1219642Y153670D01*
D02*
G37*
G36*
X1200150Y163935D02*
Y154940D01*
Y145945D01*
X1202360Y146538D01*
X1204417Y147725D01*
X1206095Y149403D01*
X1206981Y150937D01*
X1207905Y151259D01*
X1208686Y151368D01*
X1209867Y151291D01*
X1210955Y150203D01*
X1212850Y149418D01*
Y154940D01*
Y160462D01*
X1210955Y159677D01*
X1209867Y158589D01*
X1208686Y158512D01*
X1207905Y158621D01*
X1206981Y158943D01*
X1206095Y160477D01*
X1204417Y162155D01*
X1202360Y163342D01*
X1200150Y163935D01*
D02*
G37*
G36*
X864416Y165977D02*
X847836D01*
Y149397D01*
X864416D01*
Y165977D01*
D02*
G37*
G36*
X1197610Y153670D02*
X1189885D01*
X1190478Y151460D01*
X1191665Y149403D01*
X1193343Y147725D01*
X1195400Y146538D01*
X1197610Y145945D01*
Y153670D01*
D02*
G37*
G36*
X1129157Y163957D02*
X1111123D01*
Y145923D01*
X1129157D01*
Y163957D01*
D02*
G37*
G36*
X514418Y163830D02*
X511742D01*
X509158Y163138D01*
X506842Y161800D01*
X504950Y159908D01*
X503612Y157592D01*
X502920Y155008D01*
Y152332D01*
X503612Y149748D01*
X504950Y147432D01*
X506842Y145540D01*
X509158Y144202D01*
X511742Y143510D01*
X514418D01*
X517002Y144202D01*
X519318Y145540D01*
X521210Y147432D01*
X522548Y149748D01*
X523240Y152332D01*
Y155008D01*
X522548Y157592D01*
X521210Y159908D01*
X519318Y161800D01*
X517002Y163138D01*
X514418Y163830D01*
D02*
G37*
G36*
X489018D02*
X486342D01*
X483758Y163138D01*
X481442Y161800D01*
X479550Y159908D01*
X478212Y157592D01*
X477520Y155008D01*
Y152332D01*
X478212Y149748D01*
X479550Y147432D01*
X481442Y145540D01*
X483758Y144202D01*
X486342Y143510D01*
X489018D01*
X491602Y144202D01*
X493918Y145540D01*
X495810Y147432D01*
X497148Y149748D01*
X497840Y152332D01*
Y155008D01*
X497148Y157592D01*
X495810Y159908D01*
X493918Y161800D01*
X491602Y163138D01*
X489018Y163830D01*
D02*
G37*
G36*
X463618D02*
X460942D01*
X458358Y163138D01*
X456042Y161800D01*
X454150Y159908D01*
X452812Y157592D01*
X452120Y155008D01*
Y152332D01*
X452812Y149748D01*
X454150Y147432D01*
X456042Y145540D01*
X458358Y144202D01*
X460942Y143510D01*
X463618D01*
X466202Y144202D01*
X468518Y145540D01*
X470410Y147432D01*
X471748Y149748D01*
X472440Y152332D01*
Y155008D01*
X471748Y157592D01*
X470410Y159908D01*
X468518Y161800D01*
X466202Y163138D01*
X463618Y163830D01*
D02*
G37*
G36*
X438218D02*
X435542D01*
X432958Y163138D01*
X430642Y161800D01*
X428750Y159908D01*
X427412Y157592D01*
X426720Y155008D01*
Y152332D01*
X427412Y149748D01*
X428750Y147432D01*
X430642Y145540D01*
X432958Y144202D01*
X435542Y143510D01*
X438218D01*
X440802Y144202D01*
X443118Y145540D01*
X445010Y147432D01*
X446348Y149748D01*
X447040Y152332D01*
Y155008D01*
X446348Y157592D01*
X445010Y159908D01*
X443118Y161800D01*
X440802Y163138D01*
X438218Y163830D01*
D02*
G37*
G36*
X113803Y147320D02*
X109550D01*
Y143068D01*
X111446Y143853D01*
X113018Y145425D01*
X113803Y147320D01*
D02*
G37*
G36*
X107010D02*
X102758D01*
X103543Y145425D01*
X105115Y143853D01*
X107010Y143068D01*
Y147320D01*
D02*
G37*
G36*
X1100262D02*
X1096010D01*
Y143068D01*
X1097905Y143853D01*
X1099477Y145425D01*
X1100262Y147320D01*
D02*
G37*
G36*
X1093470D02*
X1089218D01*
X1090003Y145425D01*
X1091575Y143853D01*
X1093470Y143068D01*
Y147320D01*
D02*
G37*
G36*
X407070Y151580D02*
X390490D01*
Y135000D01*
X407070D01*
Y151580D01*
D02*
G37*
G36*
X845566Y144526D02*
X828294D01*
Y127254D01*
X845566D01*
Y144526D01*
D02*
G37*
G36*
X754247D02*
X751973D01*
X749777Y143938D01*
X747807Y142801D01*
X746199Y141193D01*
X745062Y139223D01*
X744474Y137027D01*
Y134753D01*
X745062Y132557D01*
X746199Y130587D01*
X747807Y128980D01*
X749777Y127843D01*
X751973Y127254D01*
X754247D01*
X756443Y127843D01*
X758413Y128980D01*
X760021Y130587D01*
X761158Y132557D01*
X761746Y134753D01*
Y137027D01*
X761158Y139223D01*
X760021Y141193D01*
X758413Y142801D01*
X756443Y143938D01*
X754247Y144526D01*
D02*
G37*
G36*
X469300Y140150D02*
X452720D01*
Y123570D01*
X469300D01*
Y140150D01*
D02*
G37*
G36*
X443900D02*
X427320D01*
Y123570D01*
X443900D01*
Y140150D01*
D02*
G37*
G36*
X880110Y126172D02*
Y121920D01*
X884362D01*
X883577Y123815D01*
X882005Y125387D01*
X880110Y126172D01*
D02*
G37*
G36*
X877570D02*
X875675Y125387D01*
X874103Y123815D01*
X873318Y121920D01*
X877570D01*
Y126172D01*
D02*
G37*
G36*
X694090Y138050D02*
X677510D01*
Y121470D01*
X694090D01*
Y138050D01*
D02*
G37*
G36*
X579790Y134020D02*
X563210D01*
Y117440D01*
X579790D01*
Y134020D01*
D02*
G37*
G36*
X506991D02*
X504809D01*
X502700Y133455D01*
X500810Y132364D01*
X499266Y130820D01*
X498175Y128930D01*
X497610Y126821D01*
Y124639D01*
X498175Y122530D01*
X499266Y120640D01*
X500810Y119096D01*
X502700Y118005D01*
X504809Y117440D01*
X506991D01*
X509100Y118005D01*
X510990Y119096D01*
X512534Y120640D01*
X513625Y122530D01*
X514190Y124639D01*
Y126821D01*
X513625Y128930D01*
X512534Y130820D01*
X510990Y132364D01*
X509100Y133455D01*
X506991Y134020D01*
D02*
G37*
G36*
X884362Y119380D02*
X880110D01*
Y115128D01*
X882005Y115913D01*
X883577Y117485D01*
X884362Y119380D01*
D02*
G37*
G36*
X877570D02*
X873318D01*
X874103Y117485D01*
X875675Y115913D01*
X877570Y115128D01*
Y119380D01*
D02*
G37*
G36*
X115570Y116012D02*
Y111760D01*
X119822D01*
X119037Y113655D01*
X117465Y115227D01*
X115570Y116012D01*
D02*
G37*
G36*
X113030D02*
X111135Y115227D01*
X109563Y113655D01*
X108778Y111760D01*
X113030D01*
Y116012D01*
D02*
G37*
G36*
X119822Y109220D02*
X115570D01*
Y104968D01*
X117465Y105753D01*
X119037Y107325D01*
X119822Y109220D01*
D02*
G37*
G36*
X113030D02*
X108778D01*
X109563Y107325D01*
X111135Y105753D01*
X113030Y104968D01*
Y109220D01*
D02*
G37*
G36*
X530260Y113700D02*
X513680D01*
Y97120D01*
X530260D01*
Y113700D01*
D02*
G37*
G36*
X96850Y99502D02*
Y95250D01*
X101103D01*
X100317Y97145D01*
X98745Y98717D01*
X96850Y99502D01*
D02*
G37*
G36*
X94310D02*
X92415Y98717D01*
X90843Y97145D01*
X90058Y95250D01*
X94310D01*
Y99502D01*
D02*
G37*
G36*
X27813Y107823D02*
X10287D01*
Y90297D01*
X27813D01*
Y107823D01*
D02*
G37*
G36*
X1127320Y97142D02*
Y90170D01*
X1134292D01*
X1133775Y92100D01*
X1132684Y93990D01*
X1131140Y95534D01*
X1129250Y96625D01*
X1127320Y97142D01*
D02*
G37*
G36*
X1124780D02*
X1122850Y96625D01*
X1120960Y95534D01*
X1119416Y93990D01*
X1118325Y92100D01*
X1117808Y90170D01*
X1124780D01*
Y97142D01*
D02*
G37*
G36*
X101103Y92710D02*
X96850D01*
Y88458D01*
X98745Y89243D01*
X100317Y90815D01*
X101103Y92710D01*
D02*
G37*
G36*
X94310D02*
X90058D01*
X90843Y90815D01*
X92415Y89243D01*
X94310Y88458D01*
Y92710D01*
D02*
G37*
G36*
X648370Y100780D02*
X631790D01*
Y84200D01*
X648370D01*
Y100780D01*
D02*
G37*
G36*
X1134292Y87630D02*
X1127320D01*
Y80658D01*
X1129250Y81175D01*
X1131140Y82266D01*
X1132684Y83810D01*
X1133775Y85700D01*
X1134292Y87630D01*
D02*
G37*
G36*
X1124780D02*
X1117808D01*
X1118325Y85700D01*
X1119416Y83810D01*
X1120960Y82266D01*
X1122850Y81175D01*
X1124780Y80658D01*
Y87630D01*
D02*
G37*
G36*
X1068740Y97190D02*
X1052160D01*
Y80610D01*
X1068740D01*
Y97190D01*
D02*
G37*
G36*
X1045880D02*
X1029300D01*
Y80610D01*
X1045880D01*
Y97190D01*
D02*
G37*
G36*
X973081D02*
X970899D01*
X968790Y96625D01*
X966900Y95534D01*
X965356Y93990D01*
X964265Y92100D01*
X963700Y89991D01*
Y87809D01*
X964265Y85700D01*
X965356Y83810D01*
X966900Y82266D01*
X968790Y81175D01*
X970899Y80610D01*
X973081D01*
X975190Y81175D01*
X977080Y82266D01*
X978624Y83810D01*
X979715Y85700D01*
X980280Y87809D01*
Y89991D01*
X979715Y92100D01*
X978624Y93990D01*
X977080Y95534D01*
X975190Y96625D01*
X973081Y97190D01*
D02*
G37*
G36*
X110490Y81722D02*
Y77470D01*
X114742D01*
X113957Y79365D01*
X112385Y80937D01*
X110490Y81722D01*
D02*
G37*
G36*
X107950D02*
X106055Y80937D01*
X104483Y79365D01*
X103698Y77470D01*
X107950D01*
Y81722D01*
D02*
G37*
G36*
X114742Y74930D02*
X110490D01*
Y70678D01*
X112385Y71463D01*
X113957Y73035D01*
X114742Y74930D01*
D02*
G37*
G36*
X107950D02*
X103698D01*
X104483Y73035D01*
X106055Y71463D01*
X107950Y70678D01*
Y74930D01*
D02*
G37*
G36*
X399871Y85980D02*
X397689D01*
X395580Y85415D01*
X393690Y84324D01*
X392146Y82780D01*
X391055Y80890D01*
X390490Y78781D01*
Y76599D01*
X391055Y74490D01*
X392146Y72600D01*
X393690Y71056D01*
X395580Y69965D01*
X397689Y69400D01*
X399871D01*
X401980Y69965D01*
X403870Y71056D01*
X405414Y72600D01*
X406505Y74490D01*
X407070Y76599D01*
Y78781D01*
X406505Y80890D01*
X405414Y82780D01*
X403870Y84324D01*
X401980Y85415D01*
X399871Y85980D01*
D02*
G37*
G36*
X462280Y74502D02*
Y67530D01*
X469252D01*
X468735Y69460D01*
X467644Y71350D01*
X466100Y72894D01*
X464210Y73985D01*
X462280Y74502D01*
D02*
G37*
G36*
X459740D02*
X457810Y73985D01*
X455920Y72894D01*
X454376Y71350D01*
X453285Y69460D01*
X452768Y67530D01*
X459740D01*
Y74502D01*
D02*
G37*
G36*
X98660Y72844D02*
Y66040D01*
X105464D01*
X104964Y67907D01*
X103894Y69761D01*
X102381Y71274D01*
X100527Y72344D01*
X98660Y72844D01*
D02*
G37*
G36*
X96120D02*
X94253Y72344D01*
X92399Y71274D01*
X90886Y69761D01*
X89816Y67907D01*
X89316Y66040D01*
X96120D01*
Y72844D01*
D02*
G37*
G36*
X116840Y67752D02*
Y63500D01*
X121092D01*
X120307Y65395D01*
X118735Y66967D01*
X116840Y67752D01*
D02*
G37*
G36*
X114300D02*
X112405Y66967D01*
X110833Y65395D01*
X110048Y63500D01*
X114300D01*
Y67752D01*
D02*
G37*
G36*
X436701Y74550D02*
X434519D01*
X432410Y73985D01*
X430520Y72894D01*
X428976Y71350D01*
X427885Y69460D01*
X427320Y67351D01*
Y65169D01*
X427885Y63060D01*
X428976Y61170D01*
X430520Y59626D01*
X432410Y58535D01*
X434519Y57970D01*
X436701D01*
X438810Y58535D01*
X440700Y59626D01*
X442244Y61170D01*
X443335Y63060D01*
X443900Y65169D01*
Y67351D01*
X443335Y69460D01*
X442244Y71350D01*
X440700Y72894D01*
X438810Y73985D01*
X436701Y74550D01*
D02*
G37*
G36*
X121092Y60960D02*
X116840D01*
Y56708D01*
X118735Y57493D01*
X120307Y59065D01*
X121092Y60960D01*
D02*
G37*
G36*
X114300D02*
X110048D01*
X110833Y59065D01*
X112405Y57493D01*
X114300Y56708D01*
Y60960D01*
D02*
G37*
G36*
X105464Y63500D02*
X98660D01*
Y56696D01*
X100527Y57196D01*
X102381Y58266D01*
X103894Y59779D01*
X104964Y61633D01*
X105464Y63500D01*
D02*
G37*
G36*
X96120D02*
X89316D01*
X89816Y61633D01*
X90886Y59779D01*
X92399Y58266D01*
X94253Y57196D01*
X96120Y56696D01*
Y63500D01*
D02*
G37*
G36*
X48460Y72898D02*
X46320D01*
X44253Y72344D01*
X42399Y71274D01*
X40886Y69761D01*
X39816Y67907D01*
X39262Y65840D01*
Y63700D01*
X39816Y61633D01*
X40886Y59779D01*
X42399Y58266D01*
X44253Y57196D01*
X46320Y56642D01*
X48460D01*
X50527Y57196D01*
X52381Y58266D01*
X53894Y59779D01*
X54964Y61633D01*
X55518Y63700D01*
Y65840D01*
X54964Y67907D01*
X53894Y69761D01*
X52381Y71274D01*
X50527Y72344D01*
X48460Y72898D01*
D02*
G37*
G36*
X469252Y64990D02*
X461010D01*
X452768D01*
X453285Y63060D01*
X454376Y61170D01*
X455920Y59626D01*
X456264Y59428D01*
X456409Y58359D01*
X456278Y56486D01*
X455045Y55253D01*
X454260Y53358D01*
X465305D01*
X464520Y55253D01*
X463940Y55833D01*
X464097Y57403D01*
X464520Y58714D01*
X466100Y59626D01*
X467644Y61170D01*
X468735Y63060D01*
X469252Y64990D01*
D02*
G37*
G36*
X866057Y67437D02*
X863683D01*
X861390Y66823D01*
X859333Y65635D01*
X857655Y63957D01*
X856468Y61900D01*
X855853Y59607D01*
Y57233D01*
X856468Y54940D01*
X857655Y52883D01*
X859333Y51205D01*
X861390Y50017D01*
X863683Y49403D01*
X866057D01*
X868350Y50017D01*
X870407Y51205D01*
X872085Y52883D01*
X873272Y54940D01*
X873887Y57233D01*
Y59607D01*
X873272Y61900D01*
X872085Y63957D01*
X870407Y65635D01*
X868350Y66823D01*
X866057Y67437D01*
D02*
G37*
G36*
X795147D02*
X777113D01*
Y49403D01*
X795147D01*
Y67437D01*
D02*
G37*
G36*
X759377D02*
X757003D01*
X754710Y66823D01*
X752653Y65635D01*
X750975Y63957D01*
X749788Y61900D01*
X749173Y59607D01*
Y57233D01*
X749788Y54940D01*
X750975Y52883D01*
X752653Y51205D01*
X754710Y50017D01*
X757003Y49403D01*
X759377D01*
X761670Y50017D01*
X763727Y51205D01*
X765405Y52883D01*
X766592Y54940D01*
X767207Y57233D01*
Y59607D01*
X766592Y61900D01*
X765405Y63957D01*
X763727Y65635D01*
X761670Y66823D01*
X759377Y67437D01*
D02*
G37*
G36*
X688467D02*
X670433D01*
Y49403D01*
X688467D01*
Y67437D01*
D02*
G37*
G36*
X465305Y50818D02*
X461053D01*
Y46565D01*
X462948Y47351D01*
X464520Y48922D01*
X465305Y50818D01*
D02*
G37*
G36*
X458513D02*
X454260D01*
X455045Y48922D01*
X456617Y47351D01*
X458513Y46565D01*
Y50818D01*
D02*
G37*
G36*
X365744Y64135D02*
X363236D01*
X360813Y63486D01*
X358642Y62232D01*
X356868Y60458D01*
X355614Y58286D01*
X354965Y55864D01*
Y53356D01*
X355614Y50933D01*
X356868Y48762D01*
X358642Y46988D01*
X360813Y45734D01*
X363236Y45085D01*
X365744D01*
X368167Y45734D01*
X370339Y46988D01*
X372112Y48762D01*
X373366Y50933D01*
X374015Y53356D01*
Y55864D01*
X373366Y58286D01*
X372112Y60458D01*
X370339Y62232D01*
X368167Y63486D01*
X365744Y64135D01*
D02*
G37*
G36*
X270510Y36002D02*
Y31750D01*
X274762D01*
X273977Y33645D01*
X272405Y35217D01*
X270510Y36002D01*
D02*
G37*
G36*
X267970D02*
X266075Y35217D01*
X264503Y33645D01*
X263718Y31750D01*
X267970D01*
Y36002D01*
D02*
G37*
G36*
X523061Y48100D02*
X520879D01*
X518770Y47535D01*
X516880Y46444D01*
X515336Y44900D01*
X514245Y43010D01*
X513680Y40901D01*
Y38719D01*
X514245Y36610D01*
X515336Y34720D01*
X516880Y33176D01*
X518770Y32085D01*
X520879Y31520D01*
X523061D01*
X525170Y32085D01*
X527060Y33176D01*
X528604Y34720D01*
X529695Y36610D01*
X530260Y38719D01*
Y40901D01*
X529695Y43010D01*
X528604Y44900D01*
X527060Y46444D01*
X525170Y47535D01*
X523061Y48100D01*
D02*
G37*
G36*
X109550Y32192D02*
Y27940D01*
X113803D01*
X113018Y29835D01*
X111446Y31407D01*
X109550Y32192D01*
D02*
G37*
G36*
X107010D02*
X105115Y31407D01*
X103543Y29835D01*
X102758Y27940D01*
X107010D01*
Y32192D01*
D02*
G37*
G36*
X928421Y35433D02*
X928370D01*
Y26670D01*
X937133D01*
Y26721D01*
X936449Y29273D01*
X935128Y31560D01*
X933260Y33428D01*
X930973Y34749D01*
X928421Y35433D01*
D02*
G37*
G36*
X925830D02*
X925779D01*
X923227Y34749D01*
X920940Y33428D01*
X919072Y31560D01*
X917751Y29273D01*
X917067Y26721D01*
Y26670D01*
X925830D01*
Y35433D01*
D02*
G37*
G36*
X274762Y29210D02*
X270510D01*
Y24958D01*
X272405Y25743D01*
X273977Y27315D01*
X274762Y29210D01*
D02*
G37*
G36*
X267970D02*
X263718D01*
X264503Y27315D01*
X266075Y25743D01*
X267970Y24958D01*
Y29210D01*
D02*
G37*
G36*
X113803Y25400D02*
X109550D01*
Y21148D01*
X111446Y21933D01*
X113018Y23505D01*
X113803Y25400D01*
D02*
G37*
G36*
X107010D02*
X102758D01*
X103543Y23505D01*
X105115Y21933D01*
X107010Y21148D01*
Y25400D01*
D02*
G37*
G36*
X641171Y35180D02*
X638989D01*
X636880Y34615D01*
X634990Y33524D01*
X633446Y31980D01*
X632355Y30090D01*
X631790Y27981D01*
Y25799D01*
X632355Y23690D01*
X633446Y21800D01*
X634990Y20256D01*
X636880Y19165D01*
X638989Y18600D01*
X641171D01*
X643280Y19165D01*
X645170Y20256D01*
X646714Y21800D01*
X647805Y23690D01*
X648370Y25799D01*
Y27981D01*
X647805Y30090D01*
X646714Y31980D01*
X645170Y33524D01*
X643280Y34615D01*
X641171Y35180D01*
D02*
G37*
G36*
X1004621Y35433D02*
X1001979D01*
X999427Y34749D01*
X997140Y33428D01*
X995272Y31560D01*
X993951Y29273D01*
X993267Y26721D01*
Y24079D01*
X993951Y21527D01*
X995272Y19240D01*
X997140Y17372D01*
X999427Y16051D01*
X1001979Y15367D01*
X1004621D01*
X1007173Y16051D01*
X1009460Y17372D01*
X1011328Y19240D01*
X1012649Y21527D01*
X1013333Y24079D01*
Y26721D01*
X1012649Y29273D01*
X1011328Y31560D01*
X1009460Y33428D01*
X1007173Y34749D01*
X1004621Y35433D01*
D02*
G37*
G36*
X979221D02*
X976579D01*
X974027Y34749D01*
X971740Y33428D01*
X969872Y31560D01*
X968551Y29273D01*
X967867Y26721D01*
Y24079D01*
X968551Y21527D01*
X969872Y19240D01*
X971740Y17372D01*
X974027Y16051D01*
X976579Y15367D01*
X979221D01*
X981773Y16051D01*
X984060Y17372D01*
X985928Y19240D01*
X987249Y21527D01*
X987933Y24079D01*
Y26721D01*
X987249Y29273D01*
X985928Y31560D01*
X984060Y33428D01*
X981773Y34749D01*
X979221Y35433D01*
D02*
G37*
G36*
X953821D02*
X951179D01*
X948627Y34749D01*
X946340Y33428D01*
X944472Y31560D01*
X943151Y29273D01*
X942467Y26721D01*
Y24079D01*
X943151Y21527D01*
X944472Y19240D01*
X946340Y17372D01*
X948627Y16051D01*
X951179Y15367D01*
X953821D01*
X956373Y16051D01*
X958660Y17372D01*
X960528Y19240D01*
X961849Y21527D01*
X962533Y24079D01*
Y26721D01*
X961849Y29273D01*
X960528Y31560D01*
X958660Y33428D01*
X956373Y34749D01*
X953821Y35433D01*
D02*
G37*
G36*
X937133Y24130D02*
X928370D01*
Y15367D01*
X928421D01*
X930973Y16051D01*
X933260Y17372D01*
X935128Y19240D01*
X936449Y21527D01*
X937133Y24079D01*
Y24130D01*
D02*
G37*
G36*
X925830D02*
X917067D01*
Y24079D01*
X917751Y21527D01*
X919072Y19240D01*
X920940Y17372D01*
X923227Y16051D01*
X925779Y15367D01*
X925830D01*
Y24130D01*
D02*
G37*
G36*
X20204Y31623D02*
X17896D01*
X15668Y31026D01*
X13669Y29872D01*
X12038Y28241D01*
X10884Y26242D01*
X10287Y24014D01*
Y21706D01*
X10884Y19478D01*
X12038Y17479D01*
X13669Y15848D01*
X15668Y14694D01*
X17896Y14097D01*
X20204D01*
X22432Y14694D01*
X24431Y15848D01*
X26062Y17479D01*
X27216Y19478D01*
X27813Y21706D01*
Y24014D01*
X27216Y26242D01*
X26062Y28241D01*
X24431Y29872D01*
X22432Y31026D01*
X20204Y31623D01*
D02*
G37*
%LPD*%
D42*
X47390Y64770D02*
D03*
X97390D02*
D03*
X124060Y205740D02*
D03*
X74060D02*
D03*
D43*
X19050Y99060D02*
D03*
D44*
Y22860D02*
D03*
D45*
X25400Y330200D02*
D03*
Y304800D02*
D03*
Y279400D02*
D03*
Y254000D02*
D03*
X1003300Y25400D02*
D03*
X977900D02*
D03*
X952500D02*
D03*
X927100D02*
D03*
X1257300Y254000D02*
D03*
Y279400D02*
D03*
Y304800D02*
D03*
Y330200D02*
D03*
D46*
X1043720Y314960D02*
D03*
X1065530D02*
D03*
X1037590Y88900D02*
D03*
X856126Y157687D02*
D03*
X571500Y125730D02*
D03*
X494250Y259080D02*
D03*
X868900D02*
D03*
X686850Y335280D02*
D03*
X1060450Y88900D02*
D03*
D47*
X978120Y314960D02*
D03*
X1131130D02*
D03*
X971990Y88900D02*
D03*
X514350Y280890D02*
D03*
X462280Y319820D02*
D03*
X435610D02*
D03*
X921726Y157687D02*
D03*
X521970Y39810D02*
D03*
X505900Y125730D02*
D03*
X559850Y259080D02*
D03*
X435610Y66260D02*
D03*
X394970Y285530D02*
D03*
X398780Y77690D02*
D03*
X934500Y259080D02*
D03*
X621250Y335280D02*
D03*
X640080Y26890D02*
D03*
X685800Y195360D02*
D03*
X1126050Y88900D02*
D03*
X685800Y219930D02*
D03*
X461010Y66260D02*
D03*
D48*
X902970Y320040D02*
D03*
X797560Y321310D02*
D03*
X1198880Y247650D02*
D03*
Y186690D02*
D03*
X1120140Y154940D02*
D03*
Y217170D02*
D03*
X679450Y58420D02*
D03*
X786130D02*
D03*
D49*
X824230Y320040D02*
D03*
X718820Y321310D02*
D03*
X1120140Y247650D02*
D03*
Y186690D02*
D03*
X1198880Y154940D02*
D03*
Y217170D02*
D03*
X758190Y58420D02*
D03*
X864870D02*
D03*
D50*
X514350Y346490D02*
D03*
X462280Y254220D02*
D03*
X435610D02*
D03*
X521970Y105410D02*
D03*
X435610Y131860D02*
D03*
X394970Y219930D02*
D03*
X398780Y143290D02*
D03*
X640080Y92490D02*
D03*
X685800Y129760D02*
D03*
Y285530D02*
D03*
X461010Y131860D02*
D03*
D51*
X364490Y306070D02*
D03*
Y54610D02*
D03*
D52*
Y191770D02*
D03*
Y168910D02*
D03*
D53*
X882650Y289560D02*
D03*
X836930Y135890D02*
D03*
D54*
X798830Y289560D02*
D03*
X753110Y135890D02*
D03*
D56*
X1012190Y242570D02*
D03*
X1037590D02*
D03*
X1062990D02*
D03*
X1088390D02*
D03*
Y166370D02*
D03*
X1062990D02*
D03*
X1037590D02*
D03*
X750570Y254000D02*
D03*
X775970D02*
D03*
X801370D02*
D03*
X826770D02*
D03*
Y177800D02*
D03*
X801370D02*
D03*
X775970D02*
D03*
X513080Y153670D02*
D03*
X487680D02*
D03*
X462280D02*
D03*
X436880D02*
D03*
Y229870D02*
D03*
X462280D02*
D03*
X487680D02*
D03*
D57*
X1012190Y166370D02*
D03*
X750570Y177800D02*
D03*
X513080Y229870D02*
D03*
D58*
X389890Y166370D02*
D03*
Y191770D02*
D03*
X190476Y327660D02*
D03*
X269240Y30480D02*
D03*
X243840Y194310D02*
D03*
X224790Y208280D02*
D03*
X109220Y76200D02*
D03*
X115570Y62230D02*
D03*
X309880Y331470D02*
D03*
X1233170Y330200D02*
D03*
X50800Y304800D02*
D03*
X146050Y205740D02*
D03*
X1214120Y217170D02*
D03*
X95580Y93980D02*
D03*
X1201420Y278130D02*
D03*
X459783Y52088D02*
D03*
X1206500Y332740D02*
D03*
X1214120Y154940D02*
D03*
X1131570Y337820D02*
D03*
X1112520Y289560D02*
D03*
X310376Y273050D02*
D03*
X284480Y207010D02*
D03*
X147320Y185420D02*
D03*
X181610Y182880D02*
D03*
X939800Y157480D02*
D03*
X878840Y120650D02*
D03*
X852170Y205740D02*
D03*
X1094740Y148590D02*
D03*
X415290Y236220D02*
D03*
X481330Y320040D02*
D03*
X108280Y148590D02*
D03*
X114300Y110490D02*
D03*
X108280Y26670D02*
D03*
M02*
