G04*
G04 #@! TF.GenerationSoftware,Altium Limited,Altium Designer,25.3.3 (18)*
G04*
G04 Layer_Color=16711935*
%FSLAX44Y44*%
%MOMM*%
G71*
G04*
G04 #@! TF.SameCoordinates,9AC58102-6E01-47F4-9C41-847502B80828*
G04*
G04*
G04 #@! TF.FilePolarity,Negative*
G04*
G01*
G75*
%ADD42C,1.1176*%
%ADD43R,1.2446X1.2446*%
%ADD44C,1.2446*%
%ADD45C,1.4986*%
%ADD46R,1.1500X1.1500*%
%ADD47C,1.1500*%
%ADD48R,1.2954X1.2954*%
%ADD49C,1.2954*%
%ADD50R,1.1500X1.1500*%
%ADD51C,1.3970*%
%ADD52R,1.3970X1.3970*%
%ADD53R,1.2192X1.2192*%
%ADD54C,1.2192*%
%ADD55C,0.8128*%
D42*
X47390Y64770D02*
D03*
X97390D02*
D03*
X124060Y205740D02*
D03*
X74060D02*
D03*
D43*
X19050Y99060D02*
D03*
D44*
Y22860D02*
D03*
D45*
X25400Y330200D02*
D03*
Y304800D02*
D03*
Y279400D02*
D03*
Y254000D02*
D03*
X1003300Y25400D02*
D03*
X977900D02*
D03*
X952500D02*
D03*
X927100D02*
D03*
X1257300Y254000D02*
D03*
Y279400D02*
D03*
Y304800D02*
D03*
Y330200D02*
D03*
D46*
X1043720Y314960D02*
D03*
X1065530D02*
D03*
X1037590Y88900D02*
D03*
X856126Y157687D02*
D03*
X571500Y125730D02*
D03*
X494250Y259080D02*
D03*
X868900D02*
D03*
X686850Y335280D02*
D03*
X1060450Y88900D02*
D03*
D47*
X978120Y314960D02*
D03*
X1131130D02*
D03*
X971990Y88900D02*
D03*
X514350Y280890D02*
D03*
X462280Y319820D02*
D03*
X435610D02*
D03*
X921726Y157687D02*
D03*
X521970Y39810D02*
D03*
X505900Y125730D02*
D03*
X559850Y259080D02*
D03*
X435610Y66260D02*
D03*
X394970Y285530D02*
D03*
X398780Y77690D02*
D03*
X934500Y259080D02*
D03*
X621250Y335280D02*
D03*
X640080Y26890D02*
D03*
X685800Y195360D02*
D03*
X1126050Y88900D02*
D03*
X685800Y219930D02*
D03*
X461010Y66260D02*
D03*
D48*
X902970Y320040D02*
D03*
X797560Y321310D02*
D03*
X1198880Y247650D02*
D03*
Y186690D02*
D03*
X1120140Y154940D02*
D03*
Y217170D02*
D03*
X679450Y58420D02*
D03*
X786130D02*
D03*
D49*
X824230Y320040D02*
D03*
X718820Y321310D02*
D03*
X1120140Y247650D02*
D03*
Y186690D02*
D03*
X1198880Y154940D02*
D03*
Y217170D02*
D03*
X758190Y58420D02*
D03*
X864870D02*
D03*
D50*
X514350Y346490D02*
D03*
X462280Y254220D02*
D03*
X435610D02*
D03*
X521970Y105410D02*
D03*
X435610Y131860D02*
D03*
X394970Y219930D02*
D03*
X398780Y143290D02*
D03*
X640080Y92490D02*
D03*
X685800Y129760D02*
D03*
Y285530D02*
D03*
X461010Y131860D02*
D03*
D51*
X364490Y306070D02*
D03*
Y54610D02*
D03*
D52*
Y191770D02*
D03*
Y168910D02*
D03*
D53*
X882650Y289560D02*
D03*
X836930Y135890D02*
D03*
D54*
X798830Y289560D02*
D03*
X753110Y135890D02*
D03*
D55*
X389890Y166370D02*
D03*
Y191770D02*
D03*
X190476Y327660D02*
D03*
X269240Y30480D02*
D03*
X243840Y194310D02*
D03*
X224790Y208280D02*
D03*
X109220Y76200D02*
D03*
X115570Y62230D02*
D03*
X309880Y331470D02*
D03*
X1233170Y330200D02*
D03*
X50800Y304800D02*
D03*
X146050Y205740D02*
D03*
X1214120Y217170D02*
D03*
X95580Y93980D02*
D03*
X1201420Y278130D02*
D03*
X459783Y52088D02*
D03*
X1206500Y332740D02*
D03*
X1214120Y154940D02*
D03*
X1131570Y337820D02*
D03*
X1112520Y289560D02*
D03*
X310376Y273050D02*
D03*
X284480Y207010D02*
D03*
X147320Y185420D02*
D03*
X181610Y182880D02*
D03*
X939800Y157480D02*
D03*
X878840Y120650D02*
D03*
X852170Y205740D02*
D03*
X1094740Y148590D02*
D03*
X415290Y236220D02*
D03*
X481330Y320040D02*
D03*
X108280Y148590D02*
D03*
X114300Y110490D02*
D03*
X108280Y26670D02*
D03*
M02*
