G04*
G04 #@! TF.GenerationSoftware,Altium Limited,Altium Designer,25.3.3 (18)*
G04*
G04 Layer_Color=0*
%FSLAX44Y44*%
%MOMM*%
G71*
G04*
G04 #@! TF.SameCoordinates,9AC58102-6E01-47F4-9C41-847502B80828*
G04*
G04*
G04 #@! TF.FilePolarity,Positive*
G04*
G01*
G75*
%ADD60C,0.1000*%
D60*
X154940Y303610D02*
Y313610D01*
X149940Y308610D02*
X159940D01*
X154940Y303610D02*
Y313610D01*
X149940Y308610D02*
X159940D01*
X171530Y256254D02*
X181530D01*
X176530Y251254D02*
Y261254D01*
X171530Y256254D02*
X181530D01*
X176530Y251254D02*
Y261254D01*
X252810Y165100D02*
X262810D01*
X257810Y160100D02*
Y170100D01*
X252810Y165100D02*
X262810D01*
X257810Y160100D02*
Y170100D01*
X293346Y269320D02*
Y279320D01*
X288346Y274320D02*
X298346D01*
X293346Y269320D02*
Y279320D01*
X288346Y274320D02*
X298346D01*
X133350Y105490D02*
Y115490D01*
X128350Y110490D02*
X138350D01*
X133350Y105490D02*
Y115490D01*
X128350Y110490D02*
X138350D01*
X203176Y322660D02*
Y332660D01*
X198176Y327660D02*
X208176D01*
X203176Y322660D02*
Y332660D01*
X198176Y327660D02*
X208176D01*
X251460Y31830D02*
Y41830D01*
X246460Y36830D02*
X256460D01*
X251460Y31830D02*
Y41830D01*
X246460Y36830D02*
X256460D01*
X274320Y48340D02*
Y58340D01*
X269320Y53340D02*
X279320D01*
X274320Y48340D02*
Y58340D01*
X269320Y53340D02*
X279320D01*
X290830Y317580D02*
Y327580D01*
X285830Y322580D02*
X295830D01*
X290830Y317580D02*
Y327580D01*
X285830Y322580D02*
X295830D01*
X130475Y57230D02*
Y67230D01*
X125475Y62230D02*
X135475D01*
X130475Y57230D02*
Y67230D01*
X125475Y62230D02*
X135475D01*
X223520Y275070D02*
Y285070D01*
X218520Y280070D02*
X228520D01*
X223593Y103444D02*
Y113444D01*
X218592Y108444D02*
X228592D01*
X90500Y143590D02*
Y153590D01*
X85500Y148590D02*
X95500D01*
X79150Y26670D02*
X89150D01*
X84150Y21670D02*
Y31670D01*
X78130Y88980D02*
Y98980D01*
X73130Y93980D02*
X83130D01*
X37240Y165100D02*
X47240D01*
X42240Y160100D02*
Y170100D01*
X1005920Y314960D02*
X1015920D01*
X1010920Y309960D02*
Y319960D01*
X1098330Y309960D02*
Y319960D01*
X1093330Y314960D02*
X1103330D01*
X1004790Y83900D02*
Y93900D01*
X999790Y88900D02*
X1009790D01*
X509350Y313690D02*
X519350D01*
X514350Y308690D02*
Y318690D01*
X462280Y282020D02*
Y292020D01*
X457280Y287020D02*
X467280D01*
X430610D02*
X440610D01*
X435610Y282020D02*
Y292020D01*
X883926Y157687D02*
X893926D01*
X888926Y152687D02*
Y162687D01*
X521970Y67610D02*
Y77610D01*
X516970Y72610D02*
X526970D01*
X538700Y120730D02*
Y130730D01*
X533700Y125730D02*
X543700D01*
X522050Y259080D02*
X532050D01*
X527050Y254080D02*
Y264080D01*
X435610Y94060D02*
Y104060D01*
X430610Y99060D02*
X440610D01*
X394970Y247730D02*
Y257730D01*
X389970Y252730D02*
X399970D01*
X398780Y105490D02*
Y115490D01*
X393780Y110490D02*
X403780D01*
X1196340Y301070D02*
Y311070D01*
X1191340Y306070D02*
X1201340D01*
X1037590Y266780D02*
Y276780D01*
X1032590Y271780D02*
X1042590D01*
X1010920Y124540D02*
Y134540D01*
X1005920Y129540D02*
X1015920D01*
X928450Y318770D02*
X938450D01*
X933450Y313770D02*
Y323770D01*
X896700Y259080D02*
X906700D01*
X901700Y254080D02*
Y264080D01*
X649050Y335280D02*
X659050D01*
X654050Y330280D02*
Y340280D01*
X862330Y111840D02*
Y121840D01*
X857330Y116840D02*
X867330D01*
X640080Y54690D02*
Y64690D01*
X635080Y59690D02*
X645080D01*
X685800Y157560D02*
Y167560D01*
X680800Y162560D02*
X690800D01*
X770970Y280670D02*
X780970D01*
X775970Y275670D02*
Y285670D01*
X722710Y133350D02*
X732710D01*
X727710Y128350D02*
Y138350D01*
X1088250Y88900D02*
X1098250D01*
X1093250Y83900D02*
Y93900D01*
X680800Y252730D02*
X690800D01*
X685800Y247730D02*
Y257730D01*
X456010Y99060D02*
X466010D01*
X461010Y94060D02*
Y104060D01*
M02*
