G04*
G04 #@! TF.GenerationSoftware,Altium Limited,Altium Designer,25.3.3 (18)*
G04*
G04 Layer_Color=8421504*
%FSLAX44Y44*%
%MOMM*%
G71*
G04*
G04 #@! TF.SameCoordinates,9AC58102-6E01-47F4-9C41-847502B80828*
G04*
G04*
G04 #@! TF.FilePolarity,Positive*
G04*
G01*
G75*
%ADD19R,1.7000X1.0500*%
%ADD20R,0.5153X0.4725*%
%ADD21R,0.4725X0.5153*%
%ADD22R,0.8500X0.7000*%
%ADD23R,1.0500X1.7000*%
%ADD24R,0.6000X2.2000*%
%ADD25R,1.7000X1.1000*%
%ADD26R,0.5000X0.6400*%
%ADD27R,0.9000X0.8000*%
%ADD28R,1.0500X1.0500*%
%ADD29R,0.6400X0.5000*%
%ADD30R,1.1000X1.7000*%
G04:AMPARAMS|DCode=31|XSize=1.1mm|YSize=0.6mm|CornerRadius=0.051mm|HoleSize=0mm|Usage=FLASHONLY|Rotation=90.000|XOffset=0mm|YOffset=0mm|HoleType=Round|Shape=RoundedRectangle|*
%AMROUNDEDRECTD31*
21,1,1.1000,0.4980,0,0,90.0*
21,1,0.9980,0.6000,0,0,90.0*
1,1,0.1020,0.2490,0.4990*
1,1,0.1020,0.2490,-0.4990*
1,1,0.1020,-0.2490,-0.4990*
1,1,0.1020,-0.2490,0.4990*
%
%ADD31ROUNDEDRECTD31*%
%ADD32R,0.5000X0.4750*%
%ADD33R,0.5200X0.5200*%
%ADD34R,0.5200X0.5200*%
D19*
X219710Y338530D02*
D03*
Y367030D02*
D03*
X196850Y372390D02*
D03*
Y343890D02*
D03*
X182880Y308890D02*
D03*
Y280390D02*
D03*
X205740Y234240D02*
D03*
Y205740D02*
D03*
X266700Y329920D02*
D03*
Y358420D02*
D03*
X242570Y329920D02*
D03*
Y358420D02*
D03*
X265430Y276300D02*
D03*
Y304800D02*
D03*
X264160Y206730D02*
D03*
Y235230D02*
D03*
X231140Y205460D02*
D03*
Y233960D02*
D03*
X163830Y9880D02*
D03*
Y38380D02*
D03*
X194310Y8610D02*
D03*
Y37110D02*
D03*
X218440Y8330D02*
D03*
Y36830D02*
D03*
X162560Y85800D02*
D03*
Y114300D02*
D03*
X163830Y185700D02*
D03*
Y157200D02*
D03*
D20*
X158726Y308610D02*
D03*
X151154D02*
D03*
X297131Y274320D02*
D03*
X289560D02*
D03*
X129564Y110490D02*
D03*
X137136D02*
D03*
X206961Y327660D02*
D03*
X199390D02*
D03*
X247674Y36830D02*
D03*
X255246D02*
D03*
X270534Y53340D02*
D03*
X278106D02*
D03*
X294616Y322580D02*
D03*
X287044D02*
D03*
X126690Y62230D02*
D03*
X134261D02*
D03*
D21*
X176530Y252468D02*
D03*
Y260040D02*
D03*
X257810Y168886D02*
D03*
Y161314D02*
D03*
D22*
X1062990Y264260D02*
D03*
Y276760D02*
D03*
X1037590Y123290D02*
D03*
Y135790D02*
D03*
D23*
X238760Y161290D02*
D03*
X210260D02*
D03*
X193071Y58138D02*
D03*
X221570D02*
D03*
X289840Y254000D02*
D03*
X261340D02*
D03*
X292380Y83820D02*
D03*
X263880D02*
D03*
X224790Y186690D02*
D03*
X196290D02*
D03*
X149580Y135890D02*
D03*
X178080D02*
D03*
D24*
X204470Y254070D02*
D03*
X217170D02*
D03*
X229870D02*
D03*
X242570D02*
D03*
Y306070D02*
D03*
X229870D02*
D03*
X217170D02*
D03*
X204470D02*
D03*
X242643Y134444D02*
D03*
X229943D02*
D03*
X217243D02*
D03*
X204543D02*
D03*
Y82444D02*
D03*
X217243D02*
D03*
X229943D02*
D03*
X242643D02*
D03*
D25*
X1075690Y114300D02*
D03*
Y140300D02*
D03*
X622300Y292400D02*
D03*
Y266400D02*
D03*
X577850Y279100D02*
D03*
Y305100D02*
D03*
X590550Y171750D02*
D03*
Y145750D02*
D03*
X1088390Y263860D02*
D03*
Y289860D02*
D03*
X976630Y218140D02*
D03*
Y244140D02*
D03*
Y170849D02*
D03*
Y196850D02*
D03*
X623570Y157780D02*
D03*
Y131780D02*
D03*
D26*
X95250Y148590D02*
D03*
X85750D02*
D03*
X82880Y93980D02*
D03*
X73381D02*
D03*
D27*
X74150Y36170D02*
D03*
Y17170D02*
D03*
X94150Y26670D02*
D03*
D28*
X42240Y116840D02*
D03*
Y130340D02*
D03*
D29*
Y169850D02*
D03*
Y160350D02*
D03*
D30*
X1053430Y341630D02*
D03*
X1027430D02*
D03*
X1049020Y59690D02*
D03*
X1023019D02*
D03*
X492090Y342900D02*
D03*
X466090D02*
D03*
X413050Y332740D02*
D03*
X387050D02*
D03*
X475950Y41910D02*
D03*
X501950D02*
D03*
X389290Y49530D02*
D03*
X415290D02*
D03*
D31*
X1186840Y293070D02*
D03*
X1196340D02*
D03*
X1205840D02*
D03*
Y319070D02*
D03*
X1196340D02*
D03*
X1186840D02*
D03*
D32*
X1037590Y266655D02*
D03*
Y276905D02*
D03*
X1010920Y134665D02*
D03*
Y124415D02*
D03*
D33*
X929450Y318770D02*
D03*
X937450D02*
D03*
D34*
X862330Y120840D02*
D03*
Y112840D02*
D03*
X775970Y276670D02*
D03*
Y284670D02*
D03*
X727710Y137350D02*
D03*
Y129350D02*
D03*
M02*
