M48
;Layer_Color=9474304
;FILE_FORMAT=4:4
METRIC,LZ
;TYPE=PLATED
T01F00S00C0.3048
T02F00S00C0.6096
T03F00S00C0.6500
T04F00S00C0.7112
T05F00S00C0.7366
T06F00S00C0.7874
T07F00S00C0.8128
T08F00S00C0.8890
T09F00S00C0.9906
%
T01
X0010828Y0002667
X0011557Y0006223
X0010922Y000762
X0009558Y0009398
X001143Y0011049
X0010828Y0014859
X0014732Y0018542
X0014605Y0020574
X0018161Y0018288
X0022479Y0020828
X0024384Y0019431
X0028448Y0020701
X00310376Y0027305
X0030988Y0033147
X00190476Y0032766
X000508Y003048
X0038989Y0019177
Y0016637
X0026924Y0003048
X00459783Y00052088
X0041529Y0023622
X0048133Y0032004
X0085217Y0020574
X0087884Y0012065
X009398Y0015748
X0109474Y0014859
X0111252Y0028956
X0113157Y0033782
X012065Y0033274
X0123317Y003302
X0120142Y0027813
X0121412Y0021717
Y0015494
T02
X0004739Y0006477
X0009739
X0007406Y0020574
X0012406
T03
X0039497Y0021993
Y0028553
X0043561Y0025422
X0046228
X0049425Y0025908
X0051435Y0028089
Y0034649
X0046228Y0031982
X0043561
X0055985Y0025908
X0062125Y0033528
X0068685
X006858Y0028553
Y0021993
Y0019536
Y0012976
X0064008Y0009249
Y0002689
X0052197Y0003981
Y0010541
X005059Y0012573
X0046101Y0013186
X0043561
X0039878Y0014329
Y0007769
X0043561Y0006626
X0046101
X005715Y0012573
X00856126Y00157687
X00921726
X009345Y0025908
X008689
X0097812Y0031496
X0104372
X0106553
X0113113
X0112605Y000889
X0106045
X0103759
X0097199
T04
X0075311Y0013589
X0083693
X0079883Y0028956
X0088265
T05
X0001905Y0002286
Y0009906
T06
X0067945Y0005842
X0075819
X0078613
X0071882Y0032131
X0079756
X0082423Y0032004
X0090297
X0112014Y0024765
Y0021717
Y0018669
Y0015494
X0086487Y0005842
X0119888Y0015494
Y0018669
Y0021717
Y0024765
T07
X0043688Y0015367
X0046228
X0048768
X0051308
Y0022987
X0048768
X0046228
X0043688
X0075057Y00254
X0077597
Y001778
X0075057
X0080137
X0082677
Y00254
X0080137
X0101219Y0024257
X0103759
X0106299
X0108839
Y0016637
X0106299
X0103759
X0101219
T08
X0036449Y0005461
Y0016891
Y0019177
Y0030607
T09
X000254Y00254
Y002794
Y003048
Y003302
X009271Y000254
X009525
X009779
X010033
X012573Y00254
Y002794
Y003048
Y003302
M30
